<?xml version="1.0" encoding="UTF-8"?><svg xmlns="http://www.w3.org/2000/svg" xmlns:xlink="http://www.w3.org/1999/xlink" viewBox="0 0 479.61 189.43"><defs><style>.r{fill:url(#j);}.r,.s,.t,.u,.v,.w,.x,.y,.a`,.aa,.ab,.ac,.ad,.ae,.af,.ag,.ah,.ai,.aj,.ak,.al,.am,.an,.ao,.ap,.aq,.ar,.as,.at,.au{fill-rule:evenodd;}.s{fill:#b64034;}.av{fill:#6e1634;}.t{fill:#e06834;}.u{fill:#f2774f;}.v{fill:#e1774f;}.w{fill:url(#g);}.aw{opacity:.2;}.aw,.ag,.ah,.aq{mix-blend-mode:multiply;}.x{fill:url(#p);}.ax{isolation:isolate;}.y{fill:#ffe313;}.a`{fill:#d9772f;opacity:.4;}.aa{fill:url(#h);}.ab{fill:#ffff18;}.ac{fill:#ffbd13;}.ad{fill:#a22634;}.ae{fill:url(#k);}.af{fill:url(#f);}.ag{fill:url(#m);}.ag,.ah{opacity:.6;}.ah{fill:url(#o);}.ai{fill:#e6774f;}.aj{fill:#801b34;}.ak{fill:url(#i);}.al{fill:#892334;}.am{fill:url(#e);}.an{fill:url(#l);}.ao{fill:#f48600;}.ap{fill:url(#d);}.aq{fill:#a61b77;opacity:.3;}.ar{fill:#dc634f;}.as{fill:url(#n);}.at{fill:#ff8b3e;}.au{fill:#fcca70;mix-blend-mode:soft-light;}</style><linearGradient id="d" x1="239.8" y1="187.43" x2="239.8" y2="9.12" gradientTransform="matrix(1, 0, 0, 1, 0, 0)" gradientUnits="userSpaceOnUse"><stop offset="0" stop-color="#8c2747"/><stop offset="1" stop-color="#d65731"/></linearGradient><linearGradient id="e" x1="92.59" y1="107.48" x2="478.85" y2="107.48" gradientTransform="matrix(1, 0, 0, 1, 0, 0)" gradientUnits="userSpaceOnUse"><stop offset="0" stop-color="#c77cbd"/><stop offset="1" stop-color="#974577"/></linearGradient><linearGradient id="f" x1="112.82" y1="125.4" x2="478.34" y2="125.4" xlink:href="#e"/><linearGradient id="g" x1="38.38" y1="90.99" x2="207.17" y2="90.99" xlink:href="#e"/><linearGradient id="h" x1="195.42" y1="147.49" x2="437" y2="147.49" xlink:href="#e"/><linearGradient id="i" x1="260.71" y1="140.77" x2="361.37" y2="140.77" xlink:href="#e"/><linearGradient id="j" x1="304.51" y1="72.84" x2="389.86" y2="72.84" xlink:href="#e"/><linearGradient id="k" x1="166.69" y1="44.1" x2="286.18" y2="44.1" xlink:href="#e"/><linearGradient id="l" x1="6.95" y1="78.1" x2="112.82" y2="78.1" xlink:href="#e"/><linearGradient id="m" x1="39.68" y1="124.88" x2="39.68" y2="86.91" xlink:href="#e"/><radialGradient id="n" cx="38.05" cy="2781.78" fx="38.05" fy="2781.78" r="26.52" gradientTransform="translate(0 -2006.97) scale(1 .75)" gradientUnits="userSpaceOnUse"><stop offset="0" stop-color="#ffce1b"/><stop offset="1" stop-color="#ff901d"/></radialGradient><linearGradient id="o" x1="435.06" y1="124.88" x2="435.06" y2="86.91" xlink:href="#e"/><radialGradient id="p" cx="433.43" fx="433.43" r="26.52" xlink:href="#n"/></defs><g class="ax"><g id="a"/><g id="b"><g id="c"><g><g><path class="ap" d="M472.49,130.96l-71.61,15.95,67.06-5.2c-1.94,3.9-3.32,6.05-3.32,6.05l-19.79,16.82c-190.34,51.08-409.57,.59-409.57,.59l-20.26-14.33C-1.4,119.54-2.08,94.03,2.3,75.36H57.69L3.8,69.76c6.11-19.99,17.44-30.76,17.44-30.76l29.27-13.18c218.35-40.28,399.12,4.99,399.12,4.99l19.87,15.73c16.09,34.52,9.78,66.05,2.99,84.43Z"/><polygon class="ai" points="467.94 141.71 464.7 132.7 400.87 146.91 467.94 141.71"/><g class="aw"><path class="am" d="M92.59,175.41s38.18-82.98,138.69-122.69c100.51-39.71,244.99,11.37,244.99,11.37l2.58,14.98S342.48,10.47,241.82,53.75c-100.66,43.27-135.47,123.61-135.47,123.61l-13.76-1.94Z"/><path class="af" d="M112.82,178.21s22.74-67.17,118.46-99.13c95.71-31.96,143.65,17.43,174.25,38.3,30.6,20.87,72.81-9.16,72.81-9.16l-5.85,22.73s-39.12,9.73-63.55-5.23c-24.43-14.96-94.17-75.64-170.55-42.45-76.38,33.19-90.4,98.91-90.4,98.91l-35.17-3.98Z"/><path class="w" d="M64.79,170.93s38.02-26.01,73.04-69.56c35.03-43.55,45.72-75.17,45.72-75.17l23.62-15.15-21.41,.44-36.14,12.01s-43.23,104.71-111.25,142.35l26.42,5.09Z"/><path class="aa" d="M195.42,187.05s30.87-60.87,104.28-76.81c73.41-15.94,137.29,56.38,137.29,56.38l-11.43,2.77s-55.62-73.89-126.14-55.94c-70.52,17.95-97.34,73.61-97.34,73.61h-6.66Z"/><path class="ak" d="M260.71,153.84s17.7-26.65,51.99-29.33c34.29-2.67,48.67,17.42,48.67,17.42,0,0-68.58,24.04-100.66,11.9Z"/><path class="r" d="M389.86,87.1s-40.72-33.23-85.35-27.5c0,0,57.21-9.17,85.35,27.5Z"/><polygon class="ae" points="166.69 79.08 209 24.5 226.71 10.61 238.38 10.34 215.27 23.02 187.43 58.58 248.82 23.02 280.09 9.29 286.18 9.12 256.29 23.02 166.69 79.08"/><path class="an" d="M9.76,139.8S104.08,91.79,112.82,16.39l-13.78,1.73S77,106.99,6.95,132.7l2.8,7.11Z"/></g><path class="at" d="M50.5,25.81S121.31,7.49,226.93,.81c105.62-6.67,222.68,29.99,222.68,29.99,0,0-199.87-41.54-399.12-4.99Z"/><path class="aj" d="M38.38,165.85s227.28,42.35,406.46-1.27c0,0-151.85,55.06-406.46,1.27Z"/><polygon class="aj" points="99.04 75.36 136.49 75.37 216.72 79.08 126.71 79.08 99.04 75.36"/><polygon class="ai" points="2.3 75.36 11.33 70.54 99.04 75.36 56.77 78.03 2.3 75.36"/><polygon class="aj" points="400.87 146.91 374.65 151.73 332.93 164.58 366.9 157.26 400.87 146.91"/><polygon class="aj" points="45.29 150.35 33.94 132.7 45.29 141.53 45.29 150.35"/><polygon class="aj" points="440.28 114.01 434.4 107.48 419.7 77.22 440.28 114.01"/><polygon class="aj" points="431.93 114.01 425.54 111.96 411.91 116.13 431.93 114.01"/><polygon class="aj" points="64.58 62.84 78.38 58.58 112.34 58.58 64.58 62.84"/><polygon class="aj" points="245.29 164.86 261.03 162.5 266.71 166.24 245.29 164.86"/><polygon class="t" points="238.38 10.34 263.92 16.39 340.1 15.88 286.18 9.12 238.38 10.34"/><polygon class="t" points="375.96 19.6 400.87 21.51 419.7 25.57 408.37 30.8 375.96 19.6"/><path class="s" d="M419.7,25.57l24.29,7.88,22.25,17.06,12.61,34.11s.95-17.84-9.36-38.08l-19.87-15.73-29.92-5.24Z"/><path class="s" d="M3.8,69.76s11.86-21.17,23.22-29.82c11.35-8.66,54.81-19.24,54.81-19.24l-31.32,5.12-29.27,13.18S7.37,50.3,3.8,69.76Z"/><polygon class="ad" points="2.3 75.36 29.53 78.78 56.77 78.03 2.3 75.36"/><polygon class="al" points="188.67 11.42 202.77 25.57 195.72 12.76 200.59 6.28 188.67 11.42"/><polygon class="v" points="202.77 25.57 192.76 12.76 200.59 6.28 188.67 11.42 202.77 25.57"/><polygon class="v" points="64.58 62.84 81.82 62.84 112.34 58.58 64.58 62.84"/><polygon class="ar" points="33.94 132.7 37.21 140.77 45.29 150.35 33.94 132.7"/><polygon class="ar" points="332.93 164.58 394.46 148.87 372.23 157.26 352.21 161.37 332.93 164.58"/><polygon class="ar" points="245.29 164.86 252.37 166.93 266.71 166.24 245.29 164.86"/><g><polygon class="al" points="10.22 90.56 14.78 89 19.88 89.78 16.69 92.42 10.22 90.56"/><polygon class="al" points="284.18 26.9 287.37 23.07 299.26 26.9 296.07 33.05 288.22 33.05 284.18 26.9"/><polygon class="al" points="314.97 36.88 316.46 35.39 322.83 38.5 318.76 41.12 314.97 38.26 314.97 36.88"/><polygon class="u" points="284.18 26.9 288.16 31.83 294.74 32.58 296.32 32.58 296.07 33.05 288.22 33.53 284.18 26.9"/><polygon class="u" points="314.97 38.26 317.65 39.88 320.35 39.88 322.83 38.5 319.57 41.12 318.76 41.12 314.97 38.26"/><polygon class="u" points="10.22 90.56 14.16 92.42 18.3 92.98 19.88 89.78 17.19 91.38 10.22 90.56"/></g><path class="au" d="M302.45,2.34l37.65,13.54,27.41,2.75-6.14-8.39s-41.18-6.54-58.92-7.9Z"/><path class="au" d="M174.57,11.99l17.66-8.49s-35.03,2.23-74.69,9.25l-11.84,4.82s42.05-4.65,68.87-5.58Z"/><path class="a`" d="M153.15,166.93s25.64-54.23,80.13-81.34c0,0-47.7,13.47-80.13,81.34Z"/><path class="a`" d="M64.79,170.93s43.79-31.27,80.82-79.56c0,0-12.16,30.15-80.82,79.56Z"/></g><g><polygon class="ag" points="16.99 93.83 16.99 115 29.36 124.88 52.01 124.88 62.36 114.18 62.36 86.91 16.99 93.83"/><g><polygon class="as" points="19.08 107.39 15.93 86.93 28.05 77.43 52.01 77.43 62.36 86.91 60.91 107.68 48.75 115 29.86 115 19.08 107.39"/><polygon class="y" points="52.01 77.43 48.8 71.55 29.36 72.85 28.05 77.43 52.01 77.43"/><polygon class="ac" points="62.36 86.91 48.8 71.55 50.93 77.43 62.36 86.91"/><polygon class="ac" points="29.36 72.85 28.05 77.43 15.93 86.93 19.01 81.9 29.36 72.85"/><polygon class="au" points="15.93 86.93 32.17 90.71 45.12 89.78 62.36 86.91 50.93 77.43 28.05 77.43 15.93 86.93"/><polygon class="ab" points="45.12 77.43 55.58 80.7 50.35 75.84 45.12 77.43"/><polygon class="ab" points="28.5 75.84 30.65 77.43 25.6 79.35 28.5 75.84"/><polygon class="ao" points="53.05 112.13 44.06 115 48.75 115 53.05 112.13"/><polygon class="ao" points="25.8 112.13 34.42 115 29.86 115 25.8 112.13"/><polygon class="aq" points="60.91 107.68 47.29 101.6 32.22 102.59 19.08 107.39 29.86 115 48.75 115 60.91 107.68"/></g><polygon class="au" points="22.64 108.37 30.65 113.75 48.8 113.49 54.72 109.62 49.23 111.06 30.65 112.13 22.64 108.37"/></g><g><polygon class="ah" points="412.37 93.83 412.37 115 424.73 124.88 447.39 124.88 457.74 114.18 457.74 86.91 412.37 93.83"/><g><polygon class="x" points="414.46 107.39 411.31 86.93 423.43 77.43 447.39 77.43 457.74 86.91 456.29 107.68 444.13 115 425.24 115 414.46 107.39"/><polygon class="y" points="447.39 77.43 444.18 71.55 424.73 72.85 423.43 77.43 447.39 77.43"/><polygon class="ac" points="457.74 86.91 444.18 71.55 446.3 77.43 457.74 86.91"/><polygon class="ac" points="424.73 72.85 423.43 77.43 411.31 86.93 414.38 81.9 424.73 72.85"/><polygon class="au" points="411.31 86.93 427.55 90.71 440.5 89.78 457.74 86.91 446.3 77.43 423.43 77.43 411.31 86.93"/><polygon class="ab" points="440.5 77.43 450.96 80.7 445.73 75.84 440.5 77.43"/><polygon class="ab" points="423.88 75.84 426.03 77.43 420.97 79.35 423.88 75.84"/><polygon class="ao" points="448.43 112.13 439.44 115 444.13 115 448.43 112.13"/><polygon class="ao" points="421.18 112.13 429.8 115 425.24 115 421.18 112.13"/><polygon class="aq" points="456.29 107.68 443.93 101.51 427.59 102.59 414.46 107.39 425.24 115 444.13 115 456.29 107.68"/></g><polygon class="au" points="418.02 108.37 426.03 113.75 444.18 113.49 450.1 109.62 444.61 111.06 426.03 112.13 418.02 108.37"/></g></g></g><g id="q"><g><path class="av" d="M118.59,83.16h-9.4v42.16h-12.96v-42.16h-9.4v-14.51h31.75v14.51Z"/><path class="av" d="M148.07,103.94h-12.96v6.87h15.87v14.51h-28.83v-56.67h28.51l-1.62,14.51h-13.93v7.63h12.96v13.15Z"/><path class="av" d="M182.41,125.32h-25.92v-56.67h12.96v42.16h12.96v14.51Z"/><path class="av" d="M211.89,103.94h-12.96v6.87h15.87v14.51h-28.83v-56.67h28.51l-1.62,14.51h-13.93v7.63h12.96v13.15Z"/><path class="av" d="M241.05,108.62v-2.42h-3.29v-13.9h15.6v30.3c-5.11,2.72-10.42,4.08-15.93,4.08-3.78,0-6.9-.63-9.37-1.89-2.47-1.26-4.42-3.13-5.86-5.63-1.44-2.49-2.44-5.59-3-9.29-.56-3.7-.84-8.02-.84-12.96,0-5.24,.34-9.73,1.03-13.49,.68-3.75,1.82-6.83,3.4-9.22,1.58-2.39,3.69-4.15,6.32-5.25,2.63-1.11,5.89-1.66,9.77-1.66,.86,0,1.88,.06,3.05,.19s2.35,.3,3.54,.53c1.19,.23,2.31,.48,3.38,.76,1.06,.28,1.92,.57,2.56,.87l-1.94,13.9c-1.76-.4-3.44-.72-5.02-.95-1.59-.23-3.06-.34-4.43-.34-2.84,0-4.84,.3-5.99,.91s-1.73,1.81-1.73,3.63v25.69h4.27c1.58,0,2.73-.24,3.43-.72s1.05-1.53,1.05-3.14Z"/><path class="av" d="M287.48,106.43l7.02,18.89h-14.25l-5.29-16.85h-2.81v16.85h-12.96v-56.67h20.41c9.29,0,13.93,6.63,13.93,19.88,0,9.07-2.02,15.04-6.05,17.91Zm-12.36-23.27h-2.97v11.34h2.97c1.58,0,2.73-.23,3.43-.68,.7-.46,1.05-1.48,1.05-3.1v-3.78c0-1.61-.35-2.65-1.05-3.1s-1.84-.68-3.43-.68Z"/><path class="av" d="M308.7,125.32h-13.66l10.48-56.67h20.03l10.48,56.67h-13.66l-1.51-8.99h-10.69l-1.46,8.99Zm6.48-39.29l-2.65,15.87h5.94l-2.59-15.87h-.7Z"/><path class="av" d="M350.44,125.32h-13.55l2.48-56.67h16.9l5.02,28.87h.49l5.02-28.87h16.96l2.43,56.67h-13.55l-.76-27.5h-.43l-4.97,27.5h-9.88l-5.02-27.5h-.38l-.76,27.5Z"/></g></g></g></g></svg>