<?xml version="1.0" encoding="UTF-8"?><svg xmlns="http://www.w3.org/2000/svg" xmlns:xlink="http://www.w3.org/1999/xlink" viewBox="0 0 461.35 462.22"><defs><style>.ai{fill:url(#y);}.ai,.aj,.ak,.al,.am,.an,.ao,.ap,.aq,.ar,.as,.at,.au,.av,.aw,.ax,.ay,.b`,.ba,.bb,.bc,.bd,.be,.bf,.bg,.bh,.bi,.bj,.bk,.bl,.bm,.bn,.bo,.bp,.bq,.br,.bs,.bt,.bu,.bv,.bw,.bx,.by,.c`,.ca,.cb,.cc,.cd,.ce,.cf,.cg,.ch,.ci,.cj,.ck,.cl{fill-rule:evenodd;}.aj{fill:url(#v);}.ak{fill:url(#r);}.al{fill:#ff6f48;}.am{fill:#ff8b39;}.an{fill:url(#j);}.ao{fill:#b64034;}.cm{fill:#6e1634;}.ap{fill:url(#w);}.aq{fill:#b12934;}.ar{fill:url(#aa);}.ar,.cn,.ba,.bj,.bn,.bo{mix-blend-mode:multiply;}.ar,.ba,.bj,.bn,.bo{opacity:.6;}.as{fill:#e06834;}.at{fill:#f2774f;}.au{fill:#7a1c34;}.av{fill:url(#t);}.aw{fill:url(#g);}.ax{fill:url(#af);}.cn,.bc{opacity:.2;}.ay{fill:#982f34;}.co{isolation:isolate;}.b`,.cd{fill:#ffff1d;}.ba{fill:url(#ac);}.bb{fill:url(#q);}.bb,.bw{mix-blend-mode:screen;opacity:.8;}.bc,.bf{fill:#d9772f;}.bd{fill:#ec7034;}.be{fill:#ffe313;}.bf{opacity:.4;}.bg{fill:url(#h);}.bh{fill:#ffff18;}.bi{fill:#ffbd13;}.bj{fill:url(#ae);}.bk{fill:url(#k);}.bl{fill:url(#f);}.bm{fill:url(#u);}.bn{fill:url(#m);}.bo{fill:url(#ag);}.bp{fill:#e6774f;}.bq{fill:url(#s);}.br{fill:url(#ab);}.bs{fill:#801b34;}.bt{fill:#ff7539;}.bu{fill:url(#i);}.bv{fill:#892334;}.bw{fill:url(#p);}.bx{fill:url(#ad);}.by{fill:url(#x);}.c`{fill:url(#e);}.ca{fill:url(#l);}.cb{fill:#f48600;}.cc{fill:url(#d);}.cd,.ch{mix-blend-mode:soft-light;}.ce{fill:#dc634f;}.cf{fill:url(#n);}.cg{fill:#ff8b3e;}.ch{fill:#fcca70;}.ci{fill:url(#ah);}.cj{fill:url(#o);}.ck{fill:#d75212;}.cl{fill:url(#a`);}</style><linearGradient id="d" x1="230.7" y1="135.05" x2="230.7" y2="7.98" gradientTransform="matrix(1, 0, 0, 1, 0, 0)" gradientUnits="userSpaceOnUse"><stop offset="0" stop-color="#8c2747"/><stop offset="1" stop-color="#d65731"/></linearGradient><linearGradient id="e" x1="46.16" y1="77.1" x2="261.94" y2="77.1" gradientTransform="matrix(1, 0, 0, 1, 0, 0)" gradientUnits="userSpaceOnUse"><stop offset="0" stop-color="#c77cbd"/><stop offset="1" stop-color="#974577"/></linearGradient><linearGradient id="f" x1="72.68" y1="77.3" x2="327.71" y2="77.3" xlink:href="#e"/><linearGradient id="g" x1="196.45" y1="77.1" x2="270.07" y2="77.1" xlink:href="#e"/><linearGradient id="h" x1="21.59" y1="67.15" x2="96.02" y2="67.15" xlink:href="#e"/><linearGradient id="i" x1="206.41" y1="75.94" x2="360.94" y2="75.94" xlink:href="#e"/><linearGradient id="j" x1="249.38" y1="77.3" x2="448.09" y2="77.3" xlink:href="#e"/><linearGradient id="k" x1="322.53" y1="103.82" x2="382.25" y2="103.82" xlink:href="#e"/><linearGradient id="l" x1="334.33" y1="97.57" x2="461.22" y2="97.57" xlink:href="#e"/><linearGradient id="m" x1="58.86" y1="111.07" x2="396.05" y2="111.07" xlink:href="#e"/><linearGradient id="n" x1="229.22" y1="111.96" x2="229.22" y2="33.52" gradientTransform="matrix(1, 0, 0, 1, 0, 0)" gradientUnits="userSpaceOnUse"><stop offset="0" stop-color="#ff901d"/><stop offset="1" stop-color="#ffce1b"/></linearGradient><radialGradient id="o" cx="234.44" cy="36.37" fx="234.44" fy="36.37" r="146.8" gradientTransform="matrix(1, 0, 0, 1, 0, 0)" gradientUnits="userSpaceOnUse"><stop offset="0" stop-color="#fff447"/><stop offset="1" stop-color="#ffbd36"/></radialGradient><linearGradient id="p" x1="311.84" y1="112.25" x2="311.84" y2="37.04" gradientTransform="matrix(1, 0, 0, 1, 0, 0)" gradientUnits="userSpaceOnUse"><stop offset="0" stop-color="#000"/><stop offset="1" stop-color="#ffbd00"/></linearGradient><linearGradient id="q" x1="79.15" y1="106.97" x2="79.15" y2="33.52" xlink:href="#p"/><linearGradient id="r" x1="230.7" y1="462.22" x2="230.7" y2="168.7" xlink:href="#d"/><linearGradient id="s" x1="84.45" y1="320.21" x2="432.01" y2="320.21" xlink:href="#e"/><linearGradient id="t" x1="107.22" y1="330.39" x2="452.56" y2="330.39" xlink:href="#e"/><linearGradient id="u" x1="188.57" y1="337.94" x2="325.1" y2="337.94" xlink:href="#e"/><linearGradient id="v" x1="160.69" y1="354.43" x2="448.78" y2="354.43" xlink:href="#e"/><linearGradient id="w" x1="176.04" y1="375.56" x2="444.03" y2="375.56" xlink:href="#e"/><linearGradient id="x" x1="242.38" y1="428.72" x2="428.17" y2="428.72" xlink:href="#e"/><linearGradient id="y" x1="20.74" y1="301.49" x2="133.54" y2="301.49" xlink:href="#e"/><linearGradient id="a`" x1="93.34" y1="243.31" x2="361.55" y2="243.31" xlink:href="#e"/><linearGradient id="aa" x1="45.59" y1="234.2" x2="45.59" y2="201.05" xlink:href="#e"/><radialGradient id="ab" cx="44.17" cy="2889.71" fx="44.17" fy="2889.71" r="23.15" gradientTransform="translate(0 -1973.8) scale(1 .75)" gradientUnits="userSpaceOnUse"><stop offset="0" stop-color="#ffce1b"/><stop offset="1" stop-color="#ff901d"/></radialGradient><linearGradient id="ac" x1="410.74" y1="228.42" x2="410.74" y2="195.27" xlink:href="#e"/><radialGradient id="ad" cx="409.32" cy="2882.03" fx="409.32" fy="2882.03" r="23.15" xlink:href="#ab"/><linearGradient id="ae" x1="389.62" y1="451.02" x2="389.62" y2="417.87" xlink:href="#e"/><radialGradient id="af" cx="388.2" cy="3177.99" fx="388.2" fy="3177.99" r="23.15" xlink:href="#ab"/><linearGradient id="ag" x1="61.12" y1="453.02" x2="61.12" y2="419.87" xlink:href="#e"/><radialGradient id="ah" cx="59.69" cy="3180.65" fx="59.69" fy="3180.65" r="23.15" xlink:href="#ab"/></defs><g class="co"><g id="a"/><g id="b"><g id="c"><g><g><path class="cc" d="M408.48,117.14l-34.29,13.65,70.21-20.98c-6.28,7.91-14.53,16.32-25.17,25.24H46.16S2.58,110.65,.25,74.64c-.14-2.26-.14-4.56,.07-6.93l.81-.3,23.18-8.82L6.77,50.18l-1.28-.61C11.84,36.49,24.44,22.47,46.16,7.98c0,0,1.39,.14,3.99,.37,28.58,2.57,205.62,17.33,358.33,4.36,0,0,79.67,27.26,43.21,86.73l-43.21,17.7Z"/><path class="cg" d="M408.47,12.7l-10.55-12.7L182.74,7.97,60.51,0l-14.33,7.97s203.69,22.57,362.29,4.73Z"/><path class="bd" d="M461.22,68.4s6.11-41.28-63.3-68.4l10.55,12.7s50.42,18.97,52.75,55.7Z"/><path class="bd" d="M.32,67.71l.81-.3c-.44,2.33-.71,4.73-.88,7.23-.03,.54-.03,1.11-.07,1.69,0,0-.41-3.28,0-8.55v-.03l.14-.03Z"/><path class="bd" d="M60.52,0l-10.37,8.35-.03,.03S20.38,22.34,6.77,50.18l-1.28-.61-1.32-.64C10.25,31.9,25.08,11.19,60.52,0Z"/><polygon class="as" points="387.51 15.24 414.78 15.24 404.54 7.97 387.51 15.24"/><polygon class="as" points="38.52 15.24 62.46 9.78 51.43 5.05 38.52 15.24"/><polygon class="cg" points="1.13 67.41 12.22 52.79 24.3 58.59 1.13 67.41"/><polygon class="cg" points="444.39 109.81 438.57 104.81 374.19 130.79 444.39 109.81"/><g class="cn"><path class="c`" d="M46.16,135.05S90.51,60.11,229.89,19.16l32.06,.4S125.65,37.74,62.46,135.05h-16.29Z"/><path class="bl" d="M72.68,135.05S161.08,46.18,287.26,19.56h40.44s-180.57,29.06-213.22,115.49h-41.81Z"/><path class="aw" d="M196.45,97.63s30.07-41.38,73.62-41.06c0,0-14.38,39.38-73.62,41.06Z"/><path class="bg" d="M91.81,11.61S25.35,54.51,21.59,115.91l7.34,6.79S19.3,59.65,96.02,11.89l-4.21-.29Z"/><path class="bu" d="M222.7,135.05s91.71-46.11,138.23-118.22l-8.33,.5s-35.71,76.1-146.19,117.72h16.3Z"/><path class="an" d="M249.38,135.05S375.99,49.38,423.52,19.56c0,0,14.62,9.42,24.57,19.8,0,0-113.06,50.44-145.13,95.68h-53.59Z"/><path class="bk" d="M322.54,126.21s-1.35-18.62,59.71-44.8c0,0-37.52,18.03-59.71,44.8Z"/><polygon class="ca" points="459.8 60.1 334.33 135.05 347.89 135.05 461.22 68.4 459.8 60.1"/></g><polygon class="as" points="123.15 14.45 173.89 22.7 290.21 19.56 188.98 15.24 123.15 14.45"/><polygon class="ao" points="327.71 19.56 380.15 16.82 399.14 19.56 424.11 22.7 452.66 45.16 440.59 30.99 414.78 15.24 389.37 14.45 327.71 19.56"/><path class="ao" d="M9.55,45.04l22.8-23.94,18.14-4.28,35.35-3.88,39.37,1.51-62.75-4.67-23.94,5.46-14.22,11.49s-11.03,9.75-14.75,18.3Z"/><path class="bf" d="M235.63,127.95s57.65-28.68,104.93-84.09c0,0-35.32,52.02-104.93,84.09Z"/><path class="bf" d="M116.24,130.79S148.53,61.6,304.35,24.23c0,0-145.6,27.19-188.11,106.56Z"/><path class="bf" d="M62.46,135.05S118.92,50.7,254.02,20.54c0,0-109.8,9.52-191.56,114.51Z"/><path class="bf" d="M29,107.01S31.99,54.37,93.89,13.25c0,0-53.71,22.84-64.88,93.76Z"/><polygon class="au" points="24.3 58.59 71.07 58.59 258.5 67.15 42 60.81 24.3 58.59"/><polygon class="al" points="42 60.81 55.93 63.03 87.55 63.03 42 60.81"/><polygon class="au" points="46.16 135.05 156.87 129.3 234.72 135.05 309.72 132.17 322.54 126.21 311.87 135.05 46.16 135.05"/><polygon class="au" points="359.24 135.05 374.19 130.79 368.2 135.05 359.24 135.05"/><polygon class="au" points="99.17 122.69 81.6 104.81 96.02 114.45 99.17 122.69"/><polygon class="au" points="283.67 126.7 330.28 117.8 300.35 126.21 283.67 126.7"/><polygon class="bv" points="123.15 7.98 109.11 13.25 116.24 24.23 117.47 13.25 123.15 7.98"/><polygon class="cg" points="116.24 24.23 113.21 19.56 117.25 15.24 116.24 24.23"/><polygon class="bv" points="312.27 52.79 334.33 71.51 322.54 65.43 312.27 52.79"/><polygon class="cg" points="283.67 126.7 300.35 126.21 330.28 117.8 298.85 125.13 283.67 126.7"/><polygon class="al" points="81.6 104.81 90.39 115.74 99.17 122.69 81.6 104.81"/><polygon class="ch" points="319.55 18.78 309.72 3.27 382.25 .58 387.51 15.24 319.55 18.78"/><polygon class="ch" points="68.34 10.14 75.25 .96 60.52 0 53.27 5.84 62.46 9.78 68.34 10.14"/><polygon class="bv" points="336.3 58.59 327.05 29.52 334.33 45.16 336.3 58.59"/><g><polygon class="au" points="414.78 95.95 418.44 91.56 432.13 95.95 428.46 103.04 419.42 103.04 414.78 95.95"/><polygon class="bv" points="65.44 83.02 67.15 81.31 74.48 84.9 69.8 87.91 65.44 84.61 65.44 83.02"/><polygon class="at" points="414.78 95.95 419.36 101.64 426.93 102.49 428.75 102.49 428.46 103.04 419.42 103.59 414.78 95.95"/><polygon class="at" points="65.44 84.61 68.53 86.48 71.63 86.48 74.48 84.9 70.74 87.91 69.8 87.91 65.44 84.61"/></g><path class="bf" d="M199.43,97.5s52.53,7.45,70.64-40.93c0,0-13.44,40.6-70.64,40.93Z"/></g><g><path class="bn" d="M58.86,105.2l3.42,7.05s189.16,6.24,326.73,4.32l7.04-9.32s-195.13,6.42-337.19-2.05Z"/><path class="cf" d="M68.57,33.52s-44.19,20.69-15.3,71.29c0,0,212.71,15.07,353.79,1.45,0,0,21.68-35.72-6.76-69.49,0,0-239.71,3.54-331.74-3.24Z"/><path class="cj" d="M400.31,36.77l-5.35-2.57s-218.48,9.67-322.28-2.12l-4.1,1.45s131.53,13.62,331.74,3.24Z"/><polygon class="bw" points="273.75 40.66 244.99 112.25 348.72 109.92 378.69 37.04 273.75 40.66"/><path class="bb" d="M68.57,33.52s-11.55,38.3-3.35,72.09l22.64,1.35,8.16-71.88-27.45-1.56Z"/><path class="cd" d="M55.5,102.49s184.65,16.38,346.22,2.32c0,0-260.19,6.35-346.22-2.32Z"/><g><polygon class="b`" points="335.36 77.29 359.95 67.71 343.71 76.23 335.36 77.29"/><polygon class="b`" points="323.21 85.5 329.49 93.63 327 89.15 323.21 85.5"/><polygon class="b`" points="243.64 50.51 258.79 55.98 248.05 53.24 243.64 50.51"/><polygon class="b`" points="175.05 52.65 169.42 54.78 174.22 54.78 175.05 52.65"/><polygon class="bt" points="335.36 77.29 345.12 72.5 359.95 67.71 335.36 77.29"/><polygon class="bt" points="323.21 85.5 327 89.15 329.49 93.63 327.46 88.52 323.21 85.5"/><polygon class="b`" points="125.06 103.38 135.23 102.02 130.12 101.93 125.06 103.38"/><polygon class="bt" points="125.06 103.38 130.12 101.93 135.23 102.02 129.8 101.22 125.06 103.38"/><polygon class="am" points="243.64 50.51 247.22 50.51 258.79 55.98 243.64 50.51"/><polygon class="am" points="169.42 54.78 170.53 51.55 175.05 52.65 169.42 54.78"/></g><polygon class="bh" points="380.97 37.7 403.99 42.59 400.31 36.77 380.97 37.7"/><polygon class="bh" points="62.46 37.31 90.92 35.28 68.57 33.52 62.46 37.31"/><polygon class="bh" points="100.09 36.03 116.24 38.69 145.05 38.47 100.09 36.03"/></g></g><g><path class="cm" d="M112.46,88.96h-10.56v12.25h-16.24V50.45h25.58c11.64,0,17.46,6.25,17.46,18.75,0,2.75-.27,5.32-.81,7.72-.54,2.39-1.46,4.48-2.74,6.26-1.29,1.78-2.96,3.19-5.01,4.23-2.05,1.04-4.61,1.56-7.68,1.56Zm-6.84-25.52h-3.72v12.52h3.72c1.99,0,3.42-.2,4.3-.61s1.32-1.35,1.32-2.84v-5.69c0-1.44-.44-2.37-1.32-2.77-.88-.41-2.31-.61-4.3-.61Z"/><path class="cm" d="M162.01,101.22v-17.94h-12.18v17.94h-16.24V50.45h16.24v17.94h12.18v-17.94h16.24v50.76h-16.24Z"/><path class="cm" d="M198.49,101.22h-17.12l13.13-50.76h25.11l13.13,50.76h-17.12l-1.9-8.05h-13.4l-1.83,8.05Zm8.12-35.2l-3.32,14.21h7.45l-3.25-14.21h-.88Z"/><path class="cm" d="M233.82,100.34l2.3-13.4c4.96,1.22,9.45,1.83,13.47,1.83,2.03,0,3.82-.03,5.38-.1s2.94-.19,4.16-.37v-4.06l-7.31-.61c-3.29-.32-6.05-.86-8.26-1.62-2.21-.77-3.98-1.82-5.31-3.15-1.33-1.33-2.28-2.93-2.84-4.81-.56-1.87-.85-4.07-.85-6.6,0-3.47,.36-6.37,1.08-8.7,.72-2.32,1.87-4.2,3.45-5.62,1.58-1.42,3.62-2.43,6.13-3.01,2.5-.59,5.56-.88,9.17-.88,7.17,0,13.67,.68,19.49,2.03l-2.03,13c-5.05-.81-9.09-1.22-12.12-1.22s-5.6,.14-7.72,.41v3.99l5.82,.54c3.56,.36,6.54,.96,8.93,1.79,2.39,.84,4.32,1.93,5.79,3.28,1.47,1.35,2.5,2.96,3.11,4.81,.61,1.85,.91,3.97,.91,6.36,0,3.43-.45,6.32-1.35,8.66-.9,2.35-1.99,4.13-3.25,5.35-1.04,.99-2.33,1.77-3.86,2.34-1.53,.56-3.16,.98-4.87,1.25-1.72,.27-3.44,.44-5.18,.51-1.74,.07-3.31,.1-4.7,.1-3.52,0-6.9-.18-10.15-.54-3.25-.36-6.39-.88-9.41-1.56Z"/><path class="cm" d="M315.18,82.06h-16.24v6.16h19.9v13h-36.14V50.45h35.74l-2.03,13h-17.46v6.84h16.24v11.78Z"/><path class="cm" d="M380.29,101.22h-33.84v-10.83h12.05v-17.94l-12.05,.81v-10.83l15.57-3.52h10.69v31.47h7.58v10.83Z"/></g><g><g><path class="cg" d="M17.72,193.86s12.56-21.82,31.4-29.67c0,0,249.31-2.88,351.26-12.04,0,0,46.34,13.79,52.19,60.8L17.72,193.86Z"/><path class="ak" d="M433.55,382.31l-47.9-.18,43.26,7.67-5.55,41.35c-6.88,27.14-46.03,31.08-46.03,31.08H74.43c-39.2-6.55-47.77-31.08-47.77-31.08l-14.67-172.53H122.2l-111.04-9.61-2.32-27.39c0-39.32,41.77-49.14,41.77-49.14l342.66-3.77c52.08-.25,59.29,44.25,59.29,44.25l-19.01,169.36Z"/><polygon class="cg" points="428.9 389.79 421.38 382.26 385.64 382.13 428.9 389.79"/><path class="au" d="M26.65,431.14l22.99,16.72,45.01,14.36h-20.23s-34.13-1.74-47.77-31.08Z"/><path class="au" d="M268.18,462.22l88.82-10.82,28.64,5.41,18.46-5.41,20.34-28.45-1.1,8.2s-3.87,27.38-46.03,31.08h-109.13Z"/><polygon class="as" points="98.32 171.94 151.35 178.19 274.07 170.01 173.29 168.7 98.32 171.94"/><polygon class="as" points="395.87 168.75 419.02 178.19 432.01 180.25 419.41 168.7 395.87 168.75"/><polygon class="ch" points="400.38 152.15 419.41 168.7 371.52 168.7 364.66 154.78 400.38 152.15"/><polygon class="ch" points="50.6 172.47 49.12 164.19 73.72 163.85 73.72 172.21 50.6 172.47"/><g class="cn"><path class="bq" d="M84.45,458.97S148.82,250.81,419.02,178.19l12.99,2.06S151.18,269.32,94.65,462.22l-10.2-3.25Z"/><path class="av" d="M107.22,462.22S213.87,215.12,447.36,198.55l5.2,14.39-1.37,12.17s-236.67,29.54-317.02,237.1h-26.96Z"/><path class="bm" d="M188.57,386.99s38.29-78.07,136.53-98.1c0,0-64.55,75.38-136.53,98.1Z"/><path class="aj" d="M160.69,462.22s209.89-138.9,288.08-215.59l-2.25,20.02s-203.76,156.54-279.52,195.57h-6.32Z"/><path class="ap" d="M176.04,462.22s199.58-92.46,267.99-173.33v4.7s-122.75,115.07-262.5,168.62h-5.5Z"/><path class="by" d="M242.38,462.22s54.41-65.85,185.79-66.99l-.8,5.99s-97.83-16.89-181.45,61h-3.54Z"/><path class="ai" d="M133.54,176.09S22.51,289.86,26.65,431.14l-5.64-66.37S11.44,224.51,107.22,171.85l26.33,4.25Z"/><path class="cl" d="M160.69,177.57s-78.34,73.83-66.04,127.71c12.3,53.88,115.62-78.25,266.9-136.23l-5.5-.35c-92.08,33.05-211.15,143.35-244,129.61-32.84-13.74,20.35-103.21,53.78-120.12l-5.14-.62Z"/></g><polygon class="cg" points="11.99 258.61 33.82 250.96 122.2 258.61 11.99 258.61"/><polygon class="au" points="245.92 163.85 267.37 169.92 267.37 180.25 260.04 170.73 245.92 163.85"/><polygon class="bs" points="122.2 258.61 145.81 258.61 211.76 263.37 151.7 263.37 122.2 258.61"/><polygon class="bs" points="21.79 373.91 49.12 354.43 67.09 344.87 21.79 373.91"/><polygon class="bs" points="262.11 438.44 280.52 442.58 280.52 438.44 262.11 438.44"/><polygon class="bs" points="441.55 315.87 419.54 313.69 405.66 324.59 419.54 318.73 441.55 315.87"/><polygon class="bp" points="405.66 324.59 438.8 316.23 419.54 318.73 405.66 324.59"/><path class="bf" d="M167.01,462.22s198.56-122.95,279.52-195.57c0,0-122.37,106.3-279.52,195.57Z"/><path class="bf" d="M138.38,451.87s59.26-170.35,283.85-221.17c0,0-198.26,45.13-283.85,221.17Z"/><path class="bf" d="M33.98,359.39s18.07-103.35,99.56-183.29c0,0-72.83,82.26-99.56,183.29Z"/><polygon class="cg" points="250.78 166.22 267.37 180.25 260.04 170.73 250.78 166.22"/><polygon class="cg" points="151.7 263.37 163.68 264.35 191.55 263.37 151.7 263.37"/><polygon class="au" points="385.64 382.13 346.32 379.3 245.92 389.79 385.64 382.13"/><polygon class="ce" points="262.11 388.9 313.04 388.07 349.96 384.08 262.11 388.9"/><polygon class="as" points="28.84 258.61 44.44 263.37 61.42 258.61 28.84 258.61"/><path class="ao" d="M371.52,168.7l28.46,4.54,9.42,4.96,26.57,5.35,9.94,18.79,1.57,29.83,.83,18.63,4.25-37.84s-5.2-24.17-20.55-32.7l-36.14-11.5-24.35-.06Z"/><path class="ao" d="M11.16,249l.83-36.04,24.11-26.52,27.48-11.58,37-3.01-49.98,.62s-42.34,9.54-41.77,49.14l2.32,27.39Z"/><polygon class="ay" points="15.19 296.3 15.19 264.35 20.74 259.84 28.84 258.61 11.99 258.61 15.19 296.3"/><g><polygon class="bv" points="401.71 200.46 406.21 195.06 422.99 200.46 418.49 209.15 407.4 209.15 401.71 200.46"/><polygon class="bv" points="55.88 322.64 57.97 320.54 66.96 324.94 61.22 328.64 55.88 324.59 55.88 322.64"/><polygon class="at" points="401.71 200.46 407.33 207.43 416.62 208.48 418.84 208.48 418.49 209.15 407.4 209.82 401.71 200.46"/><polygon class="bv" points="419.92 244.32 418.86 240.22 423.93 236.47 430.07 239.16 426.17 244.59 419.92 244.32"/><polygon class="at" points="419.92 244.32 425.3 244.02 429.08 239.84 429.86 238.75 430.07 239.16 426.5 244.82 419.92 244.32"/><polygon class="at" points="55.88 324.59 59.66 326.88 63.47 326.88 66.96 324.94 62.37 328.64 61.22 328.64 55.88 324.59"/></g><polygon class="bc" points="433.55 382.31 346.32 379.3 25.22 414.31 18.73 337.94 442.42 303.3 433.55 382.31"/></g><g><polygon class="ar" points="25.79 207.1 25.79 225.58 36.58 234.2 56.36 234.2 65.4 224.86 65.4 201.05 25.79 207.1"/><g><polygon class="br" points="27.61 218.93 24.86 201.07 35.44 192.78 56.36 192.78 65.4 201.05 64.13 219.19 53.51 225.58 37.02 225.58 27.61 218.93"/><polygon class="be" points="56.36 192.78 53.56 187.64 36.58 188.78 35.44 192.78 56.36 192.78"/><polygon class="bi" points="65.4 201.05 53.56 187.64 55.41 192.78 65.4 201.05"/><polygon class="bi" points="36.58 188.78 35.44 192.78 24.86 201.07 27.54 196.68 36.58 188.78"/><polygon class="ch" points="24.86 201.07 35.44 209.18 59.48 207.33 65.4 201.05 55.41 192.78 35.44 192.78 24.86 201.07"/><polygon class="aq" points="33.3 219.19 37.71 221.6 61.12 201.05 54.56 196.49 33.3 219.19"/><polygon class="aq" points="61.12 201.05 57.27 200.98 37.71 218.46 37.71 221.6 61.12 201.05"/><polygon class="cb" points="37.71 218.46 35.3 217.05 33.3 219.19 37.71 221.6 37.71 218.46"/><polygon class="bh" points="50.35 192.78 59.48 195.63 54.91 191.39 50.35 192.78"/><polygon class="bh" points="35.83 191.39 37.71 192.78 33.3 194.45 35.83 191.39"/><polygon class="ck" points="57.27 200.98 52.91 198.25 35.3 217.05 37.71 218.46 57.27 200.98"/><polygon class="cb" points="57.27 223.07 49.42 225.58 53.51 225.58 57.27 223.07"/><polygon class="cb" points="33.47 223.07 41 225.58 37.02 225.58 33.47 223.07"/></g></g><g><polygon class="ba" points="390.93 201.32 390.93 219.8 401.73 228.42 421.51 228.42 430.55 219.08 430.55 195.27 390.93 201.32"/><g><polygon class="bx" points="392.75 213.15 390.01 195.29 400.58 186.99 421.51 186.99 430.55 195.27 429.28 213.41 418.66 219.8 402.17 219.8 392.75 213.15"/><polygon class="be" points="421.51 186.99 418.7 181.86 401.73 183 400.58 186.99 421.51 186.99"/><polygon class="bi" points="430.55 195.27 418.7 181.86 420.56 186.99 430.55 195.27"/><polygon class="bi" points="401.73 183 400.58 186.99 390.01 195.29 392.69 190.89 401.73 183"/><polygon class="ch" points="390.01 195.29 400.58 203.4 424.62 201.55 430.55 195.27 420.56 186.99 400.58 186.99 390.01 195.29"/><polygon class="aq" points="402.63 217.47 407.6 218.26 422.8 191.08 415.09 188.97 402.63 217.47"/><polygon class="aq" points="422.8 191.08 419.14 192.3 406.55 215.31 407.6 218.26 422.8 191.08"/><polygon class="cb" points="406.55 215.31 403.81 214.78 402.63 217.47 407.6 218.26 406.55 215.31"/><polygon class="bh" points="415.49 186.99 424.62 189.85 420.06 185.61 415.49 186.99"/><polygon class="bh" points="400.98 185.61 402.86 186.99 398.44 188.67 400.98 185.61"/><polygon class="ck" points="419.14 192.3 414.12 191.18 403.81 214.78 406.55 215.31 419.14 192.3"/><polygon class="cb" points="422.41 217.29 414.56 219.8 418.66 219.8 422.41 217.29"/><polygon class="cb" points="398.62 217.29 406.15 219.8 402.17 219.8 398.62 217.29"/></g></g><g><polygon class="bj" points="369.82 423.91 369.82 442.39 380.61 451.02 400.39 451.02 409.43 441.68 409.43 417.87 369.82 423.91"/><g><polygon class="ax" points="371.64 435.75 368.89 417.88 379.47 409.59 400.39 409.59 409.43 417.87 408.16 436.01 397.54 442.39 381.05 442.39 371.64 435.75"/><polygon class="be" points="400.39 409.59 397.59 404.45 380.61 405.6 379.47 409.59 400.39 409.59"/><polygon class="bi" points="409.43 417.87 397.59 404.45 399.44 409.59 409.43 417.87"/><polygon class="bi" points="380.61 405.6 379.47 409.59 368.89 417.88 371.57 413.49 380.61 405.6"/><polygon class="ch" points="368.89 417.88 379.47 425.99 403.51 424.14 409.43 417.87 399.44 409.59 379.47 409.59 368.89 417.88"/><polygon class="aq" points="403.07 435.32 398.65 437.72 375.25 417.18 381.81 412.61 403.07 435.32"/><polygon class="aq" points="375.25 417.18 379.1 417.1 398.65 434.58 398.65 437.72 375.25 417.18"/><polygon class="cb" points="398.65 434.58 401.06 433.18 403.07 435.32 398.65 437.72 398.65 434.58"/><polygon class="bh" points="394.38 409.59 403.51 412.44 398.94 408.21 394.38 409.59"/><polygon class="bh" points="379.86 408.21 381.74 409.59 377.33 411.27 379.86 408.21"/><polygon class="ck" points="379.1 417.1 383.46 414.37 401.06 433.18 398.65 434.58 379.1 417.1"/><polygon class="cb" points="401.3 439.89 393.45 442.39 397.54 442.39 401.3 439.89"/><polygon class="cb" points="377.5 439.89 385.03 442.39 381.05 442.39 377.5 439.89"/></g></g><g><polygon class="bo" points="41.31 425.91 41.31 444.4 52.1 453.02 71.89 453.02 80.92 443.68 80.92 419.87 41.31 425.91"/><g><polygon class="ci" points="43.13 437.75 40.38 419.88 50.96 411.59 71.89 411.59 80.92 419.87 79.65 438.01 69.04 444.4 52.55 444.4 43.13 437.75"/><polygon class="be" points="71.89 411.59 69.08 406.46 52.1 407.6 50.96 411.59 71.89 411.59"/><polygon class="bi" points="80.92 419.87 69.08 406.46 70.94 411.59 80.92 419.87"/><polygon class="bi" points="52.1 407.6 50.96 411.59 40.38 419.88 43.07 415.49 52.1 407.6"/><polygon class="ch" points="40.38 419.88 50.96 427.99 75 426.14 80.92 419.87 70.94 411.59 50.96 411.59 40.38 419.88"/><polygon class="aq" points="60.86 443.31 65.74 443.31 66.07 412.17 58.29 414.01 60.86 443.31"/><polygon class="aq" points="66.07 412.17 63.44 414.98 64.09 441.82 65.74 443.31 66.07 412.17"/><polygon class="cb" points="63.41 441.21 60.75 442.07 60.86 443.31 65.74 443.31 63.41 441.21"/><polygon class="bh" points="65.87 411.59 75 414.45 70.44 410.21 65.87 411.59"/><polygon class="bh" points="51.36 410.21 53.24 411.59 48.82 413.27 51.36 410.21"/><polygon class="ck" points="63.44 414.98 58.5 416.41 60.75 442.07 64.09 441.82 63.44 414.98"/><polygon class="cb" points="72.79 441.89 64.94 444.4 69.04 444.4 72.79 441.89"/><polygon class="cb" points="49 441.89 56.53 444.4 52.55 444.4 49 441.89"/></g></g></g><g><path class="cm" d="M75.01,230.79h16.13v6.72h-16.13v-6.72Z"/><path class="cm" d="M127.71,242.85h-6.99v8.11h-10.75v-33.61h16.94c7.71,0,11.56,4.14,11.56,12.41,0,1.82-.18,3.53-.54,5.11-.36,1.58-.96,2.97-1.81,4.15s-1.96,2.11-3.32,2.8c-1.36,.69-3.05,1.03-5.09,1.03Zm-4.53-16.89h-2.46v8.29h2.46c1.31,0,2.26-.13,2.85-.4s.87-.9,.87-1.88v-3.76c0-.96-.29-1.57-.87-1.84s-1.53-.4-2.85-.4Z"/><path class="cm" d="M164,241.33l.81,9.05c-2.3,.93-5.14,1.39-8.51,1.39-3.2,0-5.84-.35-7.93-1.05-2.09-.7-3.75-1.77-4.97-3.2-1.23-1.43-2.08-3.26-2.58-5.47-.49-2.21-.74-4.82-.74-7.84s.23-5.49,.69-7.68c.46-2.2,1.29-4.03,2.49-5.51,1.19-1.48,2.82-2.59,4.86-3.34,2.05-.75,4.64-1.12,7.77-1.12,.69,0,1.46,.04,2.31,.11,.85,.08,1.69,.17,2.51,.29,.82,.12,1.6,.26,2.33,.43,.73,.16,1.32,.35,1.77,.56l-1.61,8.25c-2.39-.51-4.53-.76-6.41-.76s-3.29,.18-4.03,.54c-.75,.36-1.12,1.08-1.12,2.15v14.07c.69,.15,1.38,.26,2.08,.34,.7,.07,1.43,.11,2.17,.11,2.99,0,5.69-.43,8.11-1.3Z"/><path class="cm" d="M167.23,250.38l1.52-8.87c3.29,.81,6.26,1.21,8.92,1.21,1.34,0,2.53-.02,3.56-.07s1.95-.13,2.76-.25v-2.69l-4.84-.4c-2.18-.21-4-.57-5.47-1.08-1.46-.51-2.64-1.2-3.52-2.08-.88-.88-1.51-1.94-1.88-3.18-.37-1.24-.56-2.7-.56-4.37,0-2.3,.24-4.22,.72-5.76,.48-1.54,1.24-2.78,2.29-3.72,1.05-.94,2.4-1.61,4.06-1.99,1.66-.39,3.68-.58,6.07-.58,4.75,0,9.05,.45,12.91,1.34l-1.34,8.6c-3.35-.54-6.02-.81-8.02-.81s-3.7,.09-5.11,.27v2.64l3.85,.36c2.36,.24,4.33,.63,5.92,1.19,1.58,.55,2.86,1.28,3.83,2.17,.97,.9,1.66,1.96,2.06,3.18s.6,2.63,.6,4.21c0,2.27-.3,4.18-.9,5.74-.6,1.55-1.31,2.73-2.15,3.54-.69,.66-1.54,1.17-2.55,1.55-1.02,.37-2.09,.65-3.23,.83-1.14,.18-2.28,.29-3.43,.34-1.15,.04-2.19,.07-3.11,.07-2.33,0-4.57-.12-6.72-.36-2.15-.24-4.23-.58-6.23-1.03Z"/><path class="cm" d="M234.53,250.96h-21.51v-33.61h10.75v25h10.75v8.6Z"/><path class="cm" d="M250.22,223.27c8.6,0,12.91,2.96,12.91,8.87v18.82h-5.38l-3.05-3.05c-.54,.6-1.17,1.14-1.9,1.61-.73,.48-1.52,.88-2.35,1.21-.84,.33-1.69,.58-2.55,.76-.87,.18-1.7,.27-2.51,.27-1.52,0-2.89-.16-4.1-.47s-2.23-.81-3.07-1.5c-.84-.69-1.48-1.6-1.93-2.73-.45-1.13-.67-2.52-.67-4.17,0-6.45,4.87-9.68,14.61-9.68h2.15v-1.93c-.57-.03-1.08-.06-1.55-.09-.46-.03-.89-.04-1.28-.04-4.03,0-7.51,.49-10.44,1.48l-1.3-7.71c3.58-1.1,7.72-1.66,12.41-1.66Zm-3.76,18.46v2.2h2.24c1.55,0,2.57-.18,3.05-.54,.42-.39,.63-.85,.63-1.39v-2.55h-2.2c-1.29,0-2.23,.13-2.82,.4-.6,.27-.9,.9-.9,1.88Z"/><path class="cm" d="M267.42,224.07h10.75v19.85h1.66c1.31,0,2.26-.13,2.84-.4,.58-.27,.87-.9,.87-1.88v-17.57h10.75v26.89h-5.38l-3.14-3.05c-2.15,2.57-5.21,3.85-9.19,3.85-3.2,0-5.53-.68-6.99-2.04-1.46-1.36-2.2-3.64-2.2-6.83v-18.82Z"/><path class="cm" d="M299.69,224.07h5.38l2.69,2.69c3.32-2.33,6.9-3.5,10.75-3.5,2.54,0,4.52,.55,5.94,1.64,1.42,1.09,2.13,2.61,2.13,4.55v21.51h-10.75v-18.82h-1.66c-1.23,0-2.15,.13-2.78,.38-.63,.25-.94,.81-.94,1.68v16.76h-10.75v-26.89Z"/><path class="cm" d="M351.39,242.89l.67,7.75c-1.85,.75-4.26,1.12-7.21,1.12-5.02,0-8.65-1.17-10.89-3.52-2.24-2.34-3.36-5.92-3.36-10.73s1.12-8.39,3.36-10.73c2.24-2.34,5.87-3.52,10.89-3.52,3.2,0,5.6,.37,7.21,1.12l-1.3,7.3c-.96-.18-1.81-.32-2.55-.42-.75-.1-1.41-.16-1.97-.16-2.72,0-4.08,.96-4.08,2.87v9.63c.51,.09,1.1,.16,1.77,.22,.67,.06,1.43,.09,2.26,.09,1.67,0,3.41-.34,5.2-1.03Z"/><path class="cm" d="M367.12,234.38v16.58h-10.75v-34.95l10.75-.81v9.86c2.3-1.19,4.84-1.79,7.62-1.79s4.93,.55,6.36,1.64c1.43,1.09,2.15,2.61,2.15,4.55v21.51h-10.75v-18.82h-1.66c-1.32,0-2.26,.13-2.85,.4-.58,.27-.87,.88-.87,1.84Z"/><path class="cm" d="M75.01,284.57h16.13v6.72h-16.13v-6.72Z"/><path class="cm" d="M119.87,304.73h-11.25l2.06-33.61h14.02l4.17,17.12h.4l4.17-17.12h14.07l2.02,33.61h-11.25l-.63-16.31h-.36l-4.12,16.31h-8.2l-4.17-16.31h-.31l-.63,16.31Z"/><path class="cm" d="M166.29,277.04c8.6,0,12.91,2.96,12.91,8.87v18.82h-5.38l-3.05-3.05c-.54,.6-1.17,1.14-1.9,1.61-.73,.48-1.52,.88-2.35,1.21-.84,.33-1.69,.58-2.55,.76-.87,.18-1.7,.27-2.51,.27-1.52,0-2.89-.16-4.1-.47s-2.23-.81-3.07-1.5c-.84-.69-1.48-1.6-1.93-2.73-.45-1.13-.67-2.52-.67-4.17,0-6.45,4.87-9.68,14.61-9.68h2.15v-1.93c-.57-.03-1.08-.06-1.55-.09-.46-.03-.89-.04-1.28-.04-4.03,0-7.51,.49-10.44,1.48l-1.3-7.71c3.58-1.1,7.72-1.66,12.41-1.66Zm-3.76,18.46v2.2h2.24c1.55,0,2.57-.18,3.05-.54,.42-.39,.63-.85,.63-1.39v-2.55h-2.2c-1.28,0-2.23,.13-2.82,.4-.6,.27-.9,.9-.9,1.88Z"/><path class="cm" d="M184.03,304.73v-26.89h5.38l2.96,3c2.15-1.97,4.81-3.24,7.98-3.81l.63,10.17c-.42,0-.93,.06-1.52,.18-.6,.12-1.2,.27-1.81,.45-.61,.18-1.17,.4-1.68,.65-.51,.25-.9,.54-1.17,.87v15.37h-10.75Z"/><path class="cm" d="M219.48,304.73l-4.17-10.67h-.36v10.67h-10.75v-34.95l10.75-.81v17.74h.36l3.9-8.87h11.61l-6.23,12.82,6.5,14.07h-11.61Z"/><path class="cm" d="M244.8,295.59v1.88c.54,.06,1.08,.1,1.61,.13,.54,.03,1.08,.04,1.61,.04,3.34,0,6.72-.54,10.13-1.61l1.25,7.89c-4.03,1.08-8.01,1.61-11.92,1.61-5.02,0-8.65-1.17-10.89-3.52-2.24-2.34-3.36-5.92-3.36-10.73s1.13-8.39,3.38-10.73c2.25-2.34,5.88-3.52,10.87-3.52,2.51,0,4.6,.16,6.27,.47s3.02,.84,4.06,1.57c1.03,.73,1.76,1.72,2.2,2.96,.43,1.24,.65,2.8,.65,4.68,0,1.55-.26,2.89-.78,4.01s-1.4,2.04-2.62,2.76-2.85,1.25-4.88,1.59c-2.03,.34-4.56,.51-7.57,.51Zm0-8.42v2.2h2.2c1.31,0,2.26-.13,2.84-.4,.58-.27,.87-.9,.87-1.88v-2.2h-2.2c-1.32,0-2.26,.13-2.85,.4-.58,.27-.87,.9-.87,1.88Z"/><path class="cm" d="M265.77,284.79h-2.69v-6.95h2.69v-4.3l10.75-2.69v6.99h3.72v6.95h-3.72v12.23c.45,.09,.94,.17,1.48,.25,.54,.08,1.1,.13,1.7,.16l-.49,7.89c-4.9,0-8.1-.27-9.59-.81-1.25-.45-2.21-1.02-2.87-1.73-.66-.7-.99-1.74-.99-3.11v-14.88Z"/><path class="cm" d="M283.69,272.78c0-.81,.09-1.49,.27-2.04,.18-.55,.49-1,.94-1.34,.45-.34,1.06-.59,1.84-.74,.78-.15,1.76-.22,2.96-.22s2.17,.08,2.94,.22,1.37,.4,1.81,.74,.76,.79,.94,1.34c.18,.55,.27,1.23,.27,2.04s-.09,1.48-.27,2.02c-.18,.54-.49,.98-.94,1.32-.45,.34-1.05,.58-1.81,.72-.76,.13-1.74,.2-2.94,.2-.87,0-1.67-.03-2.4-.09-.73-.06-1.37-.23-1.9-.51-.54-.28-.96-.71-1.25-1.28s-.45-1.36-.45-2.38Zm11.34,31.95h-10.75v-25.54l10.75-1.34v26.89Z"/><path class="cm" d="M300.4,277.84h5.38l2.69,2.69c3.32-2.33,6.9-3.5,10.75-3.5,2.54,0,4.52,.55,5.94,1.64,1.42,1.09,2.13,2.61,2.13,4.55v21.51h-10.75v-18.82h-1.66c-1.23,0-2.15,.13-2.78,.38-.63,.25-.94,.81-.94,1.68v16.76h-10.75v-26.89Z"/><path class="cm" d="M330.96,311.99l1.39-8.02c3.08,1.04,6.65,1.57,10.71,1.57,.6,0,1.11,0,1.55-.02,.43-.02,.77-.04,1.01-.07v-1.88c-1.61,0-2.93-.04-3.94-.11-1.02-.07-1.78-.19-2.29-.34-1.02-.27-1.66-.54-1.93-.81-.33-.27-.52-.49-.58-.65-.06-.16-.09-.41-.09-.74l1.61-4.62c-2.57-.48-4.53-1.46-5.87-2.94-1.34-1.48-2.02-3.79-2.02-6.92s1.06-5.45,3.18-7.04c2.12-1.58,5.56-2.38,10.31-2.38,.87,0,1.67,.02,2.42,.07,.75,.04,1.46,.13,2.15,.25l4.7-3.58,5.65,5.42-3.09,3.58c.48,1.23,.72,2.84,.72,4.84,0,1.4-.16,2.63-.49,3.67s-.87,1.93-1.63,2.64c-.76,.72-1.76,1.28-2.98,1.68s-2.75,.68-4.57,.83l-.22,1.3c1.94,.12,3.58,.31,4.93,.56,1.34,.25,2.43,.65,3.27,1.19,.84,.54,1.44,1.23,1.82,2.06,.37,.84,.56,1.9,.56,3.18,0,2.15-.43,3.82-1.3,5.02-.87,1.19-1.99,2.08-3.38,2.64-1.39,.57-2.96,.91-4.71,1.03-1.75,.12-3.5,.18-5.26,.18-3.56,0-7.42-.54-11.61-1.61Zm9.68-25.54v3.5h1.66c1.28,0,2.22-.13,2.82-.4s.9-.88,.9-1.84v-3.5h-1.7c-1.28,0-2.22,.13-2.8,.4-.58,.27-.87,.88-.87,1.84Z"/><path class="cm" d="M75.01,338.34h16.13v6.72h-16.13v-6.72Z"/><path class="cm" d="M129.28,358.5h-19.31v-33.61h17.43c3.23,0,5.53,.63,6.9,1.88,1.37,1.25,2.06,3.08,2.06,5.47s-.43,4.28-1.3,5.58c-.87,1.3-2.05,2.16-3.54,2.58v.31c4.33,.75,6.5,3.7,6.5,8.87,0,2.69-.71,4.85-2.13,6.47-1.42,1.63-3.62,2.44-6.61,2.44Zm-5.15-26.26h-3.41v5.02h3.32c1.37,0,2.06-.84,2.06-2.51s-.66-2.51-1.97-2.51Zm.81,12.86h-4.21v5.51h4.12c1.52,0,2.29-.93,2.29-2.78s-.73-2.73-2.2-2.73Z"/><path class="cm" d="M141.24,331.62h10.75v19.85h1.66c1.31,0,2.26-.13,2.85-.4s.87-.9,.87-1.88v-17.57h10.75v26.89h-5.38l-3.14-3.05c-2.15,2.57-5.21,3.85-9.19,3.85-3.2,0-5.53-.68-6.99-2.04-1.46-1.36-2.2-3.64-2.2-6.83v-18.82Z"/><path class="cm" d="M173.5,358.5v-26.89h5.38l2.96,3c2.15-1.97,4.81-3.24,7.98-3.81l.63,10.17c-.42,0-.93,.06-1.52,.18-.6,.12-1.2,.27-1.81,.45-.61,.18-1.17,.4-1.68,.65-.51,.25-.9,.54-1.17,.87v15.37h-10.75Z"/><path class="cm" d="M193.67,331.62h5.38l2.69,2.69c3.32-2.33,6.9-3.5,10.75-3.5,2.54,0,4.52,.55,5.94,1.64,1.42,1.09,2.13,2.61,2.13,4.55v21.51h-10.75v-18.82h-1.66c-1.23,0-2.15,.13-2.78,.38-.63,.25-.94,.81-.94,1.68v16.76h-10.75v-26.89Z"/><path class="cm" d="M263.03,333.5h-7.8v25h-10.75v-25h-7.8v-8.6h26.35v8.6Z"/><path class="cm" d="M264.91,345.06c0-4.81,1.12-8.39,3.36-10.73,2.24-2.34,5.87-3.52,10.89-3.52s8.65,1.17,10.89,3.52c2.24,2.35,3.36,5.92,3.36,10.73s-1.12,8.39-3.36,10.73c-2.24,2.35-5.87,3.52-10.89,3.52s-8.5-1.15-10.8-3.45c-2.3-2.3-3.45-5.9-3.45-10.8Zm11.56-4.12v10.53h1.66c1.31,0,2.26-.13,2.85-.4,.58-.27,.87-.9,.87-1.88v-10.53h-1.66c-1.32,0-2.26,.13-2.85,.4-.58,.27-.87,.9-.87,1.88Z"/><path class="cm" d="M312.99,358.5l-4.17-10.67h-.36v10.67h-10.75v-34.95l10.75-.81v17.74h.36l3.9-8.87h11.61l-6.23,12.82,6.5,14.07h-11.61Z"/><path class="cm" d="M338.31,349.36v1.88c.54,.06,1.08,.1,1.61,.13,.54,.03,1.08,.04,1.61,.04,3.34,0,6.72-.54,10.13-1.61l1.25,7.89c-4.03,1.08-8.01,1.61-11.92,1.61-5.02,0-8.65-1.17-10.89-3.52-2.24-2.34-3.36-5.92-3.36-10.73s1.13-8.39,3.38-10.73c2.25-2.34,5.88-3.52,10.87-3.52,2.51,0,4.6,.16,6.27,.47s3.02,.84,4.06,1.57c1.03,.73,1.76,1.72,2.2,2.96,.43,1.24,.65,2.8,.65,4.68,0,1.55-.26,2.89-.78,4.01s-1.4,2.04-2.62,2.76-2.85,1.25-4.88,1.59c-2.03,.34-4.56,.51-7.57,.51Zm0-8.42v2.2h2.2c1.31,0,2.26-.13,2.84-.4,.58-.27,.87-.9,.87-1.88v-2.2h-2.2c-1.32,0-2.26,.13-2.85,.4-.58,.27-.87,.9-.87,1.88Z"/><path class="cm" d="M358.21,331.62h5.38l2.69,2.69c3.32-2.33,6.9-3.5,10.75-3.5,2.54,0,4.52,.55,5.94,1.64,1.42,1.09,2.13,2.61,2.13,4.55v21.51h-10.75v-18.82h-1.66c-1.23,0-2.15,.13-2.78,.38-.63,.25-.94,.81-.94,1.68v16.76h-10.75v-26.89Z"/><path class="cm" d="M75.01,392.11h16.13v6.72h-16.13v-6.72Z"/><path class="cm" d="M108.62,411.69l1.52-8.87c3.29,.81,6.26,1.21,8.92,1.21,1.34,0,2.53-.02,3.56-.07s1.95-.13,2.76-.25v-2.69l-4.84-.4c-2.18-.21-4-.57-5.47-1.08-1.46-.51-2.64-1.2-3.52-2.08-.88-.88-1.51-1.94-1.88-3.18-.37-1.24-.56-2.7-.56-4.37,0-2.3,.24-4.22,.72-5.76,.48-1.54,1.24-2.78,2.29-3.72,1.05-.94,2.4-1.61,4.06-1.99,1.66-.39,3.68-.58,6.07-.58,4.75,0,9.05,.45,12.91,1.34l-1.34,8.6c-3.35-.54-6.02-.81-8.02-.81s-3.7,.09-5.11,.27v2.64l3.85,.36c2.36,.24,4.33,.63,5.92,1.19,1.58,.55,2.86,1.28,3.83,2.17,.97,.9,1.66,1.96,2.06,3.18s.6,2.63,.6,4.21c0,2.27-.3,4.18-.9,5.74-.6,1.55-1.31,2.73-2.15,3.54-.69,.66-1.54,1.17-2.55,1.55-1.02,.37-2.09,.65-3.23,.83-1.14,.18-2.28,.29-3.43,.34-1.15,.04-2.19,.07-3.11,.07-2.33,0-4.57-.12-6.72-.36-2.15-.24-4.23-.58-6.23-1.03Z"/><path class="cm" d="M151.73,395.69v16.58h-10.75v-34.95l10.75-.81v9.86c2.3-1.2,4.84-1.79,7.62-1.79s4.93,.55,6.36,1.64c1.43,1.09,2.15,2.61,2.15,4.55v21.51h-10.75v-18.82h-1.66c-1.31,0-2.26,.13-2.85,.4-.58,.27-.87,.88-.87,1.84Z"/><path class="cm" d="M172.38,380.32c0-.81,.09-1.49,.27-2.04,.18-.55,.49-1,.94-1.34s1.06-.59,1.84-.74c.78-.15,1.76-.22,2.96-.22s2.17,.08,2.94,.22,1.37,.4,1.81,.74,.76,.79,.94,1.34c.18,.55,.27,1.23,.27,2.04s-.09,1.48-.27,2.02c-.18,.54-.49,.98-.94,1.32-.45,.34-1.05,.58-1.81,.72-.76,.13-1.74,.2-2.94,.2-.87,0-1.67-.03-2.4-.09-.73-.06-1.37-.23-1.9-.51-.54-.28-.96-.71-1.25-1.28-.3-.57-.45-1.36-.45-2.38Zm11.34,31.95h-10.75v-25.54l10.75-1.34v26.89Z"/><path class="cm" d="M189.1,377.32l10.75-.81v28.05c.57,.12,1.08,.21,1.52,.27,.45,.06,.82,.11,1.12,.13l-.49,7.89c-4.57,0-7.6-.27-9.1-.81-1.25-.45-2.2-1.03-2.85-1.75-.64-.72-.96-1.75-.96-3.09v-29.89Z"/><path class="cm" d="M205.72,377.32l10.75-.81v28.05c.57,.12,1.08,.21,1.52,.27,.45,.06,.82,.11,1.12,.13l-.49,7.89c-4.57,0-7.6-.27-9.1-.81-1.25-.45-2.2-1.03-2.85-1.75-.64-.72-.96-1.75-.96-3.09v-29.89Z"/></g></g></g></g></svg>