<svg id="e4VjKPJR8dt1" xmlns="http://www.w3.org/2000/svg" xmlns:xlink="http://www.w3.org/1999/xlink" viewBox="0 0 512 512" shape-rendering="geometricPrecision" text-rendering="geometricPrecision"><defs><linearGradient id="e4VjKPJR8dt16-fill" x1="330.314319" y1="113.579131" x2="197.990332" y2="333.784843" spreadMethod="pad" gradientUnits="userSpaceOnUse" gradientTransform="translate(0 0)"><stop id="e4VjKPJR8dt16-fill-0" offset="0%" stop-color="#0ff"/><stop id="e4VjKPJR8dt16-fill-1" offset="2%" stop-color="#00efef"/><stop id="e4VjKPJR8dt16-fill-2" offset="9%" stop-color="#00bebe"/><stop id="e4VjKPJR8dt16-fill-3" offset="17%" stop-color="#009090"/><stop id="e4VjKPJR8dt16-fill-4" offset="25%" stop-color="#006969"/><stop id="e4VjKPJR8dt16-fill-5" offset="34%" stop-color="#004848"/><stop id="e4VjKPJR8dt16-fill-6" offset="43%" stop-color="#002e2e"/><stop id="e4VjKPJR8dt16-fill-7" offset="53%" stop-color="#001919"/><stop id="e4VjKPJR8dt16-fill-8" offset="65%" stop-color="#000b0b"/><stop id="e4VjKPJR8dt16-fill-9" offset="78%" stop-color="#000202"/><stop id="e4VjKPJR8dt16-fill-10" offset="100%" stop-color="#000"/></linearGradient><linearGradient id="e4VjKPJR8dt17-fill" x1="162.917755" y1="429.988544" x2="295.233407" y2="209.788357" spreadMethod="pad" gradientUnits="userSpaceOnUse" gradientTransform="translate(0 0)"><stop id="e4VjKPJR8dt17-fill-0" offset="0%" stop-color="#ff0"/><stop id="e4VjKPJR8dt17-fill-1" offset="2%" stop-color="#efef00"/><stop id="e4VjKPJR8dt17-fill-2" offset="9%" stop-color="#bebe00"/><stop id="e4VjKPJR8dt17-fill-3" offset="17%" stop-color="#909000"/><stop id="e4VjKPJR8dt17-fill-4" offset="25%" stop-color="#696900"/><stop id="e4VjKPJR8dt17-fill-5" offset="34%" stop-color="#484800"/><stop id="e4VjKPJR8dt17-fill-6" offset="43%" stop-color="#2e2e00"/><stop id="e4VjKPJR8dt17-fill-7" offset="53%" stop-color="#191900"/><stop id="e4VjKPJR8dt17-fill-8" offset="65%" stop-color="#0b0b00"/><stop id="e4VjKPJR8dt17-fill-9" offset="78%" stop-color="#020200"/><stop id="e4VjKPJR8dt17-fill-10" offset="100%" stop-color="#000"/></linearGradient><radialGradient id="e4VjKPJR8dt36-fill" cx="0" cy="0" r="158.17" spreadMethod="pad" gradientUnits="userSpaceOnUse" gradientTransform="translate(214.35 255.42)"><stop id="e4VjKPJR8dt36-fill-0" offset="0%" stop-color="#0ff"/><stop id="e4VjKPJR8dt36-fill-1" offset="13%" stop-color="#00f4ff"/><stop id="e4VjKPJR8dt36-fill-2" offset="37%" stop-color="#00d7ff"/><stop id="e4VjKPJR8dt36-fill-3" offset="67%" stop-color="#00a9ff"/><stop id="e4VjKPJR8dt36-fill-4" offset="100%" stop-color="#006fff"/></radialGradient></defs><g id="e4VjKPJR8dt2"><path d="M131.35,121.61l10.09-66.88c.25-1.63,1.46-2.95,3.08-3.33l84.43-19.73c2.07-.48,4.16.72,4.78,2.76L249.67,86.8c.47,1.55,1.82,2.67,3.43,2.84l14.68,1.59c1.13.12,2.25-.23,3.1-.98l25.45-22.37c1.02-.89,2.41-1.22,3.72-.87l79.77,21.54c1.76.48,2.99,2.07,2.99,3.9v26.22c0,3.4,3.94,5.28,6.58,3.14c2.17-1.76,5.42-.84,6.35,1.79l2.06,5.83c.65,1.85,2.54,2.96,4.47,2.64l43.52-7.25c2.22-.37,4.32,1.15,4.66,3.37l12.05,78.75c.04.24.09.47.17.69l11.29,33.07c.3.89.29,1.85-.04,2.73l-11.35,30.03c-.53,1.41-1.8,2.4-3.3,2.58l-18.9,2.26c-3.5.42-4.82,4.81-2.13,7.09l2.15,1.82c1.11.94,1.63,2.4,1.36,3.83L418.27,415.71c-.39,2.07-2.31,3.5-4.41,3.27l-50.91-5.57c-1.91-.21-3.7.95-4.29,2.78l-7.3,22.71c-.5,1.55-1.88,2.65-3.5,2.79l-44.8,3.9c-.41.04-.81.13-1.19.29L243.5,469.91c-1.01.41-2.13.41-3.13-.02l-47.91-20.6c-.72-.31-1.51-.4-2.28-.27l-58.43,10.04c-.83.14-1.67.02-2.43-.34L80.85,435.51c-1.96-.94-2.83-3.27-1.95-5.27l18.3-41.73c.6-1.37.4-2.96-.53-4.13L36.63,308.5c-.56-.71-.87-1.6-.87-2.51v-42.56c0-1.63.98-3.1,2.49-3.73l17.86-7.42c2.11-.88,3.08-3.34,2.12-5.42L36.72,200.02c-.59-1.29-.46-2.8.34-3.97l25.85-37.6c.55-.8,1.36-1.37,2.3-1.62l24.41-6.46c1.77-.47,3.01-2.07,3.01-3.9v-18.98c0-1.07.42-2.1,1.18-2.85l8.61-8.62c1.23-1.24,3.13-1.54,4.68-.75l18.4,9.33c2.46,1.25,5.41-.28,5.82-3Z" fill="#870037"/><polygon points="234.1,35.64 202.76,66.44 195.13,101.65 138.28,132.62 127.11,125.01 107.13,115.28 101.16,124.77 110.92,161.25 89.65,150.38 66.46,156.52 63.19,188.19 74.65,200.28 52.38,206.22 52.38,215.99 72.74,249.64 47.92,263.49 66.09,305.21 85.47,330.09 104.13,385.24 120.68,441.24 129.37,454.18 170.06,439.24 202.76,440.39 244.76,450.15 242.64,468.39 250.87,466.88 288.56,451.02 297.15,434.03 351.74,437.79 358.68,416.19 359.94,405.82 370.76,404.76 404.15,409.21 413.6,400.73 413.6,335.61 427.6,341.76 441.76,291.04 425.69,278.76 424.21,267.1 417.42,247.16 458.57,271.34 471.93,240.8 450.3,210.89 457.97,177.3 450.74,130.07 389.21,154.25 394.09,132.83 391.33,124.56 368.21,143.86 373.51,122.65 379.45,91.16 373.65,86.88 301.54,67.41 280.4,103.35 264.91,102.71 239.46,101.01 244.34,92.32 234.1,35.64" fill="#5b003f"/><path d="M65.55,243.18l-4.47-9.8l2.12-12.53l4.88-2.48v-2.39l5.09-7.86l9.33-36.06l9.75-9.76l5.31-.85l17.61-25.67l20.8-9.4l63.41-24.96l14.98-9.28l15.14-8.53l5.73,1.06l2.97,2.97l4.58-4.03l9.63-2.76l2.55,8.48l19.1,2.07l9.11-4.61l10.39,1.27l5.09,6.58l15.06,2.8l4.03,3.99l42.85,19.94l3.61,6.58-1.44,3.01l7.04,6.09l13.91,5.32l3.61,3.39l2.35,6.53l3.9,10.99l2.03,2.77l4.91,7.18l7.38,4.55l7.64,19.55l3.82,21.03l9.39,73.49l1,6.19-4.88,23.81-3.01,2.41-2.29,23.42-5.94,9.33-5.36,1.75-2.91,10.2c0,0-1.48,5.02-2.12,5.23s-4.67,2.97-4.67,2.97l-8.41,2.75-6.01,19.1-11.67,11.03-4.82.04-14.29,11.4-2.1,4.89-19.73,13.15h-11.24l-77.21,16.33-7.42,5.3-4.76,1.27-9.24-6.58h-15.64l.36-4.4-10.47-2.67-6.28,2.67-25.04-10.22-36.04-25.12-16.54-9.05-5.3-13.22-8.7-19.24L82.1,359.74l-8.06-21.35-6.58-14.16l8.7-18.37L61.1,291.22l-.85-15.27-.59-19.05l4.87-6.28l1.04-7.49Z" fill="#c90052"/><circle r="183.26" transform="matrix(.707107-.707107 0.707107 0.707107 246.457917 272.610842)" fill="#c90052"/><path style="mix-blend-mode:multiply" d="M89.08,292.58c-12.27-10.16-5.02-45.71,22.09-40.47s76.32,93.36,49.17,94.26c-27.15.91-22.03-13.03-71.26-53.79Z" fill="#df00ff"/><g><path style="mix-blend-mode:multiply" d="M182.99,379.42c10.01,3.84,13.64,28.42-4.51,31.06-18.15,2.65-69.17-43.34-52.4-49.97c16.77-6.62,16.77,3.52,56.91,18.91Z" fill="#df00ff"/><path style="mix-blend-mode:multiply" d="M145.41,331.21c10.01,3.84,13.64,28.42-4.51,31.06-18.15,2.65-69.17-43.34-52.4-49.97c16.77-6.62,16.77,3.52,56.91,18.91Z" fill="#df00ff"/><g><path style="mix-blend-mode:multiply" d="M314.49,397.83c9.35-.91,19.04,16.58,4.7,25.6s-69.17-6.67-57.06-18.21s14.87-3.75,52.36-7.39Z" fill="#df00ff"/><path style="mix-blend-mode:multiply" d="M279.43,428.47c5.12,1.36,5.84,11.83-3.93,13.5-9.76,1.66-34.56-16.66-25.34-19.99s8.73,1.03,29.26,6.49Z" fill="#df00ff"/><path style="mix-blend-mode:multiply" d="M294.55,381.54c5.12,1.36,5.84,11.83-3.93,13.5-9.76,1.66-34.56-16.66-25.34-19.99s8.73,1.03,29.26,6.49Z" fill="#df00ff"/><path style="mix-blend-mode:multiply" d="M377.99,376.96c5.12,1.36,5.84,11.83-3.93,13.5-9.76,1.66-34.56-16.66-25.34-19.99s8.73,1.03,29.26,6.49Z" fill="#df00ff"/></g></g><path style="mix-blend-mode:screen" d="M413.91,286.48c-35.44,43.36-114.97-100.18-224.14-23.39-109.16,76.79-129.09-53.4-62.1-115.65C180.02,98.8,229.51,78.28,314.93,107.5s122.58,150.1,98.98,178.98Z" opacity="0.53" fill="url(#e4VjKPJR8dt16-fill)"/><path style="mix-blend-mode:screen" d="M79.32,257.09c35.44-43.36,114.97,100.18,224.14,23.39c109.16-76.79,129.09,53.4,62.1,115.65-52.36,48.64-101.84,69.16-187.26,39.94s-122.58-150.1-98.98-178.98Z" opacity="0.53" fill="url(#e4VjKPJR8dt17-fill)"/><path d="M253.1,89.63l-22.73,16.05l1.67,2.12-2.97,3.39-16.97,16.33v8.91l-61.42,78.48h-39.55c0,0-6.15.85-7,0s0,8.28,0,8.28l-3.61,5.3-1.27,1.7-33.71,13v5.08l44.95-13.53l29.87-4.86l48.82,120.15l10.18,56-1.7,3.61l1.27,1.7l1.48,2.97-3.82,5.78l3.18,2.92-3.91,25.81l4.54-2.05l8.91-26.68l3.55-75.3l76.7-26.99l8.98,10.61l31.24,42.65l5.73,40.71l28.64,1.3l3.45-2.95-10.45-3.64-12.73-.21-3.82-1.91-3.61-39.03-4.03-2.33-3.39-.85-.85-5.3-2.97-.64-2.97-5.3-25.67-33.51l15.27-3.82l47.16-120.24l16.41-8.93l20.21-4.24v-12.3l-2.65-4.53-2.02,10.9-15.91,1.27-22.7-21.21-.31-10.95l10.11-12.34-3.16-2.54-3.75,2.54v3.14L350,138.26L346.51,142l-4.34,6.58-78.97,6.58-32.38,21.64-3.93-42l29.06-37.29l1.59-7.82h-4.5Z" fill="#773000"/><polygon points="395.59,166.07 392.39,179.71 351.67,184.37 361.85,141.55 369.79,137.05 362.75,130.96 350.07,138.21 342.24,197.35 397.91,184.37 400.5,173.25 395.59,166.07" fill="#0098ff"/><g><path d="M151.37,216.66l-31.64-40.17c-.71-.9-1-2.05-.81-3.17l5.12-30.21c.15-.89.59-1.7,1.25-2.3l54.93-50.35c1.82-1.66,4.69-1.33,6.07.71l54.84,80.71c2.57,3.78,8.46,1.05,7.23-3.35l-4.3-15.5c-.28-1.03-.15-2.12.37-3.05l18.56-33.24c.91-1.63,2.83-2.43,4.63-1.92l93.09,26.42c.74.21,1.4.63,1.91,1.2l14.4,16.16c.78.87,1.14,2.03.99,3.19l-9.58,76.05c-.22,1.77.75,3.48,2.38,4.2l33.32,14.65c.81.36,1.49.97,1.92,1.75l15.27,27.83c.65,1.18.67,2.61.04,3.8l-43.84,84.52c-.9,1.73-2.9,2.57-4.76,2.01l-21.86-6.63c-.62-.19-1.19-.52-1.65-.98l-50.69-49.64c-2.87-2.81-7.64-.17-6.77,3.76l8.14,36.9c.16.74.12,1.51-.14,2.22L280.28,417.4c-.61,1.72-2.29,2.82-4.11,2.68l-46.71-3.5c-1.69-.13-3.12-1.29-3.58-2.92l-19.57-68.82c-.92-3.25-5.19-4-7.16-1.26l-23.12,32.04c-.87,1.21-2.34,1.84-3.81,1.64l-59.36-7.94c-1.35-.18-2.52-1.03-3.11-2.26l-17.12-35.7c-.71-1.48-.46-3.23.64-4.45l47.67-53.02c1.65-1.83,1.28-4.71-.77-6.07l-24.69-16.36c-1.2-.8-1.89-2.18-1.8-3.62l1.31-20.86c.13-2.13,1.9-3.79,4.03-3.79h29.17c3.37,0,5.26-3.89,3.17-6.54Z" fill="#e54600"/><polygon points="186.3,91.16 175.76,162.31 232.04,205.02 156.52,223.19 195.89,248.29 127.11,333.98 176.04,375.6 204.04,336.81 206,343.72 262.3,352.37 299.63,295.24 349.4,317.3 404.15,256.69 370.83,242.03 378.02,161.78 358.74,145.35 281.25,228.49 263.99,229.91 257.04,188.62 216.38,135.42 186.3,91.16" fill="#c63d00"/><path d="M175.76,162.31l-17.31,2.6-30.97,4.65c-3.08.46-5.69-2.25-5.11-5.31l4.75-25.11l50.17-40.67c3.2-2.6,7.92.1,7.32,4.17l-8.84,59.67Z" fill="#ff8b00"/><path d="M118.6,228.25l-1.47,17.62c-.12,1.48.57,2.91,1.8,3.73l37.84,25.16l35.95-28.49-68.85-21.56c-2.49-.78-5.05.95-5.27,3.54Z" fill="#ff8b00"/><polygon points="93.28,326.91 127.11,333.98 171.42,278.77 140.95,273.89 93.28,326.91" fill="#ff8b00"/><path d="M206.32,344.83l19.57,68.82l38.68,2.48c5.68.36,10.14-4.79,8.97-10.36l-11.24-53.4-56.29-8.64.31,1.1Z" fill="#ff8b00"/><polygon points="349.26,368.98 349.4,317.3 299.63,295.24 298.58,319.34 349.26,368.98" fill="#ff8b00"/><path d="M358.74,145.35L279.52,118.8c-6.89-2.31-14.46.61-18,6.96l-17.18,30.76l30.4,70.42l6.5,1.56l77.49-83.15Z" fill="#ff8b00"/><polygon points="331.85,174.19 291.92,157.14 244.34,156.52 331.85,174.19" fill="#f50"/><polygon points="129.94,139.69 160.77,126.4 171.42,157.14 154.92,133.54 129.94,139.69" fill="#f50"/><polygon points="175.76,162.31 151.37,216.66 232.04,205.02 175.76,162.31" fill="#f50"/><path d="M127.11,333.98l-7.67,36.2l28.21-.86c4.48-.14,6.74-5.47,3.72-8.79l-24.25-26.56Z" fill="#f50"/><path d="M376.78,362.86l-14.09-60.27L349.4,317.3l-.14,51.69l20.37,2.03c4.55.45,8.2-3.7,7.16-8.15Z" fill="#f50"/><polygon points="156.52,223.19 156.52,234.94 192.72,246.27 156.52,223.19" fill="#f50"/></g><g><polygon points="338.09,406.67 333,372.16 295.69,316.52 305.66,290.67 290.01,281.1 295.69,259.6 275.87,223.97 244.34,156.52 232.88,137.99 274.05,91.41 254.94,89.35 216.38,135.42 254.94,192.17 256.92,198.14 184.81,210.39 150.79,215.91 110.71,216.61 108.45,230.76 65.55,243.18 64.51,250.68 114.4,236.5 115.23,223.19 156.52,223.19 189.17,215.97 262.3,214.35 290.01,261.3 282.51,281.25 295.69,292.97 288.88,309.85 291.17,320.24 328.48,372.16 329.04,414.02 353.34,421.5 364.19,413.05 338.09,406.67" fill="url(#e4VjKPJR8dt36-fill)"/><polygon points="204.58,314.58 204.04,336.81 195.89,348.1 202.91,423.14 195.89,448.81 206.36,451.48 211.19,428.73 206,343.72 212.89,316.36 204.58,314.58"/></g><polygon style="mix-blend-mode:multiply" points="149.53,306.05 161.05,332.11 204.23,328.91 271.4,338.44 284.64,298.07 295.69,292.97 304.77,292.97 341.06,313.6 404.15,256.69 370.83,242.03 376,184.37 339.22,180.13 323.99,190.17 156.52,297.34 149.53,306.05" opacity="0.47" fill="#c63d00"/><g><path d="M193.73,203.38l66.69,10.67c1.19.19,2.23.9,2.84,1.94l25.77,43.65c.62,1.05.73,2.33.3,3.47l-22.98,61.17c-.7,1.87-2.67,2.95-4.63,2.53l-57.14-12.22c-.36-.08-.73-.1-1.1-.08l-41.8,2.61c-1.73.11-3.34-.9-3.99-2.51l-11.34-27.88c-.68-1.66-.17-3.57,1.23-4.69l54.44-43.14c1.74-1.38,2.04-3.91.67-5.66l-15.77-20.15c-1.22-1.56-1.13-3.77.21-5.23l2.99-3.24c.92-.99,2.27-1.46,3.61-1.25Z" fill="#ff6700"/><polygon points="275.87,223.97 309.24,184.37 359.59,204.17 390.13,263 327.91,304.29 290.01,281.1 295.69,259.6 275.87,223.97" fill="#ff6700"/><polygon points="327.91,304.29 321.55,230.19 359.59,204.17 390.13,263 327.91,304.29" fill="#f25100"/><polygon points="266.35,324.28 226.94,272.61 257.04,237.4 230.34,233.38 263.26,215.99 290.01,261.3 266.35,324.28" fill="#f25100"/><polygon points="275.87,223.97 307.97,254.73 290.01,281.1 295.69,259.6 275.87,223.97" fill="#f25100"/><path d="M230.34,233.38l-34.27-18.61c-4.14-2.25-5.26-7.69-2.33-11.39l68.57,10.97.97,1.64-32.92,17.39Z" fill="#ff9e10"/><polygon points="226.94,272.61 198.21,276.03 147.59,282.04 202.02,238.91 257.04,237.4 226.94,272.61" fill="#ff9e10"/><path d="M204.58,314.58l27.06-35.81l22.22,32.99c3.18,4.73-.84,10.97-6.46,10.02l-42.83-7.19Z" fill="#ff9e10"/><polygon points="275.87,223.97 321.55,230.19 359.59,204.17 309.24,184.37 275.87,223.97" fill="#ff9e10"/><polygon points="307.97,254.73 323.1,248.27 327.91,304.29 290.01,281.1 307.97,254.73" fill="#ff9e10"/></g><polygon style="mix-blend-mode:multiply" points="203.81,116.92 215.32,192.33 229.18,202.86 256.92,198.14 254.94,192.17 203.81,116.92" opacity="0.47" fill="#c63d00"/><path d="M203.19,273.89c0,0,39.26-8.39,17.56,19.29l27.84,10.75c0,0-20.92-30.44-12.37-42.18c8.54-11.74-33.03,12.13-33.03,12.13Z" fill="#ff9e10"/><path d="M297.76,269.73c0,0,11.05-12.38-9.3-33.7c0,0,18.21,17.37,20.51,16.85s12.8-1.58,12.05-9.85c-.74-8.27,3.84-12.65-22.76-16.01-26.6-3.35-.5-.07-.5-.07l40.4-8.12c0,0-15.33,9.02-14.16,21.86c1.16,12.83,1.26,61.71,12.3,56.21s20.67-11.89,20.67-11.89l-29.05,19.28-30.15-34.56Z" fill="#ff9e10"/><path d="M240.93,234.98c0,0-10.98-1.39,1.87-8.18s-15.12-2.27-15.12-2.27l2.66,8.86c0,0,26.08,4.04,9.96,4.48l16.74-.46-16.11-2.43Z" fill="#ff9e10"/><path d="M183.52,315.75c0,0,21.93-2.02,29.92-12.9l1.77,9.07-10.63,2.66-21.06,1.17Z" fill="#ff9e00"/><path d="M156.52,164.01c0,0,16.65-3.26,11.88,9.24s-16.03,41.18-16.03,41.18s21.48-51.58,32.28-43.84s38.26,27.57,38.26,27.57-4.45-1.27-7.95-18.56-7.31-37.49-7.31-37.49s7.31,45.55-1.28,40.35-29.58-14.07-28.42-28.42s3.13-27.65,3.13-27.65l-7.37,33.49L156.53,164Z" fill="#ff8b00"/><path d="M358.74,182.38c0,0-18.53-1.88-17.15-8.67s17.15-28.37,17.15-28.37l-39.89,42.8c0,0,19.05-21.03,19.95-14.9.89,6.14-14.21,16.53-14.21,16.53s8.95-8.48,20.93-7.74s13.22.34,13.22.34Z" fill="#ff8b00"/><path d="M363.86,149.71c0,0-4.37-4.52-9.69,2.34l4.58-6.71l5.12,4.36Z" fill="#ef8200"/><path d="M370.26,183.71c0,0,5.67,1.31,6.42-7.04l-1.59,17.74c0,0,.69-9.81-4.83-10.7Z" fill="#ff8b00"/><path d="M149.2,232.64c0,0,6.55,2.79,7.32-9.45l16.8-3.72c0,0-15.12,2.97-6.62,9.3s25.26,17.48,33.1,11.89L183.22,253.8c0,0,7.17-6.29-7.32-16.83-14.49-10.53-24.9-14.44-15.7-.89s-10.99-3.44-10.99-3.44Z" fill="#ff8b00"/><path d="M109.91,330.39c0,0,13.73,1.76,13.38,10.1s-2.17,21.76-2.17,21.76s4.29-26.92,9.38-22.6c5.09,4.31,13.48,12.83,13.48,12.83s-15.17-17.03,1.27-3.05c0,0-16.99-14.02-12.9-20.38s13.7-18.65,13.7-18.65l-36.14,20.01Z" fill="#ff8b00"/><path d="M239.43,348.85c0,0,23.2,4.14,31.5-9.7c0,0-7.89,15.31-2.55,42.08s-28.95-32.38-28.95-32.38Z" fill="#ff8b00"/><path d="M341.06,313.6c0,0,8.15,32.05,8.21,32.76s1.95-31.06,7.69-37.42c5.74-6.35,11.27,17.32,11.27,17.32s-6.1-21.95,4.19-34.44c0,0-24.1,23.71-37.69,18.97-13.6-4.74,6.33,2.81,6.33,2.81Z" fill="#ff8b00"/></g><g id="e4VjKPJR8dt63" transform="translate(385.529998-30.569997)"><g><g><polygon points="77.45,76.7 69.22,104.68 80.37,143.86 84.58,116.72 86.4,95.63 77.45,76.7" fill="#ff6700"/><polygon points="85.32,97.22 77.81,108.18 80.37,143.86 84.11,119.75 85.32,97.22" fill="#f25100"/><polygon points="69.22,104.68 77.81,108.18 77.45,76.7 69.22,104.68" fill="#ff9e10"/></g><polygon points="76.92,107.82 69.22,104.68 80.37,143.86 76.92,107.82" fill="#ff6700"/><path d="M72.06,105.84c0,0,4.04,1.05,5.1,4.44c1.05,3.4,1.81,13.99,1.81,13.99s-1.11-13.55,1.68-18.93s3.13-5.87,3.13-5.87-4.69,7.31-5.35,6.66-.67-3.3-.67-3.3l-5.7,3.01Z" fill="#ff9e10"/></g></g><g id="e4VjKPJR8dt71" transform="translate(326.158813 3.875004)"><g><polygon points="82.62,20.67 110.65,36.51 116.49,59.13 105.52,95.33 77.81,52.35 82.62,20.67" fill="#ff6700"/><polygon points="77.81,52.35 92.85,41.88 82.62,20.67 77.81,52.35" fill="#ff9e10"/><polygon points="92.85,41.88 116.49,59.13 105.52,95.33 92.85,41.88" fill="#f25100"/><polygon points="92.85,41.88 105.52,95.33 77.81,52.35 92.85,41.88" fill="#ff6700"/><polygon points="104.67,33.13 101.41,48.13 116.49,59.13 110.65,36.51 104.67,33.13" fill="#ff6700"/><path d="M85.2,47.21c0,0,8.68-9.32,19.9,47.47c0,0-11.26-50.25-5.6-46.44c5.66,3.82,16.98,10.89,16.98,10.89s-13.89-9.83-13.49-18.28c0,0-1.79,7.11-5.05,3.43-3.25-3.68-15.33-23.62-15.33-23.62L85.19,47.2Z" fill="#ff9e10"/></g></g><g id="e4VjKPJR8dt79"><g><polygon points="456.3,292.58 489.67,312.9 480.62,361.98 456.3,381.36 445.55,324.78 456.3,292.58" fill="#7c0050"/><polygon points="456.3,292.58 476.31,327.51 456.3,381.36 445.55,324.78 456.3,292.58" fill="#aa003d"/><polygon points="475.76,328.06 489.67,312.9 480.62,361.98 456.3,381.36 475.76,328.06" fill="#7c0050"/><polygon points="475.76,328.06 461.96,331.66 445.55,324.78 459.06,341.04 475.76,328.06" fill="#7c0050"/><path d="M465.75,309.81c0,0,8.23,15.52,12.61,12.55s11.31-9.46,11.31-9.46-14.17,15.86-15.46,19.39l1.41-4.2-8.72-8.32-1.16-9.97Z" fill="#aa003d"/></g></g><script><![CDATA[!function(t,n){"object"==typeof exports&&"undefined"!=typeof module?module.exports=n():"function"==typeof define&&define.amd?define(n):((t="undefined"!=typeof globalThis?globalThis:t||self).__SVGATOR_PLAYER__=t.__SVGATOR_PLAYER__||{},t.__SVGATOR_PLAYER__["5c7f360c"]=n())}(this,(function(){"use strict";function t(t,n){var e=Object.keys(t);if(Object.getOwnPropertySymbols){var r=Object.getOwnPropertySymbols(t);n&&(r=r.filter((function(n){return Object.getOwnPropertyDescriptor(t,n).enumerable}))),e.push.apply(e,r)}return e}function n(n){for(var e=1;e<arguments.length;e++){var r=null!=arguments[e]?arguments[e]:{};e%2?t(Object(r),!0).forEach((function(t){o(n,t,r[t])})):Object.getOwnPropertyDescriptors?Object.defineProperties(n,Object.getOwnPropertyDescriptors(r)):t(Object(r)).forEach((function(t){Object.defineProperty(n,t,Object.getOwnPropertyDescriptor(r,t))}))}return n}function e(t){return(e="function"==typeof Symbol&&"symbol"==typeof Symbol.iterator?function(t){return typeof t}:function(t){return t&&"function"==typeof Symbol&&t.constructor===Symbol&&t!==Symbol.prototype?"symbol":typeof t})(t)}function r(t,n){if(!(t instanceof n))throw new TypeError("Cannot call a class as a function")}function i(t,n){for(var e=0;e<n.length;e++){var r=n[e];r.enumerable=r.enumerable||!1,r.configurable=!0,"value"in r&&(r.writable=!0),Object.defineProperty(t,r.key,r)}}function u(t,n,e){return n&&i(t.prototype,n),e&&i(t,e),t}function o(t,n,e){return n in t?Object.defineProperty(t,n,{value:e,enumerable:!0,configurable:!0,writable:!0}):t[n]=e,t}function a(t){return(a=Object.setPrototypeOf?Object.getPrototypeOf:function(t){return t.__proto__||Object.getPrototypeOf(t)})(t)}function l(t,n){return(l=Object.setPrototypeOf||function(t,n){return t.__proto__=n,t})(t,n)}function s(){if("undefined"==typeof Reflect||!Reflect.construct)return!1;if(Reflect.construct.sham)return!1;if("function"==typeof Proxy)return!0;try{return Boolean.prototype.valueOf.call(Reflect.construct(Boolean,[],(function(){}))),!0}catch(t){return!1}}function f(t,n,e){return(f=s()?Reflect.construct:function(t,n,e){var r=[null];r.push.apply(r,n);var i=new(Function.bind.apply(t,r));return e&&l(i,e.prototype),i}).apply(null,arguments)}function c(t,n){if(n&&("object"==typeof n||"function"==typeof n))return n;if(void 0!==n)throw new TypeError("Derived constructors may only return object or undefined");return function(t){if(void 0===t)throw new ReferenceError("this hasn't been initialised - super() hasn't been called");return t}(t)}function h(t,n,e){return(h="undefined"!=typeof Reflect&&Reflect.get?Reflect.get:function(t,n,e){var r=function(t,n){for(;!Object.prototype.hasOwnProperty.call(t,n)&&null!==(t=a(t)););return t}(t,n);if(r){var i=Object.getOwnPropertyDescriptor(r,n);return i.get?i.get.call(e):i.value}})(t,n,e||t)}function v(t){return function(t){if(Array.isArray(t))return y(t)}(t)||function(t){if("undefined"!=typeof Symbol&&null!=t[Symbol.iterator]||null!=t["@@iterator"])return Array.from(t)}(t)||function(t,n){if(!t)return;if("string"==typeof t)return y(t,n);var e=Object.prototype.toString.call(t).slice(8,-1);"Object"===e&&t.constructor&&(e=t.constructor.name);if("Map"===e||"Set"===e)return Array.from(t);if("Arguments"===e||/^(?:Ui|I)nt(?:8|16|32)(?:Clamped)?Array$/.test(e))return y(t,n)}(t)||function(){throw new TypeError("Invalid attempt to spread non-iterable instance.\nIn order to be iterable, non-array objects must have a [Symbol.iterator]() method.")}()}function y(t,n){(null==n||n>t.length)&&(n=t.length);for(var e=0,r=new Array(n);e<n;e++)r[e]=t[e];return r}Number.isInteger||(Number.isInteger=function(t){return"number"==typeof t&&isFinite(t)&&Math.floor(t)===t}),Number.EPSILON||(Number.EPSILON=2220446049250313e-31);var g=d(Math.pow(10,-6));function d(t){var n=arguments.length>1&&void 0!==arguments[1]?arguments[1]:6;if(Number.isInteger(t))return t;var e=Math.pow(10,n);return Math.round((+t+Number.EPSILON)*e)/e}function p(t,n){var e=arguments.length>2&&void 0!==arguments[2]?arguments[2]:g;return Math.abs(t-n)<e}var m=Math.PI/180;function b(t){return t}function w(t,n,e){var r=1-e;return 3*e*r*(t*r+n*e)+e*e*e}function x(){var t=arguments.length>0&&void 0!==arguments[0]?arguments[0]:0,n=arguments.length>1&&void 0!==arguments[1]?arguments[1]:0,e=arguments.length>2&&void 0!==arguments[2]?arguments[2]:1,r=arguments.length>3&&void 0!==arguments[3]?arguments[3]:1;return t<0||t>1||e<0||e>1?null:p(t,n)&&p(e,r)?b:function(i){if(i<=0)return t>0?i*n/t:0===n&&e>0?i*r/e:0;if(i>=1)return e<1?1+(i-1)*(r-1)/(e-1):1===e&&t<1?1+(i-1)*(n-1)/(t-1):1;for(var u,o=0,a=1;o<a;){var l=w(t,e,u=(o+a)/2);if(p(i,l))break;l<i?o=u:a=u}return w(n,r,u)}}function A(){return 1}function k(t){return 1===t?1:0}function _(){var t=arguments.length>0&&void 0!==arguments[0]?arguments[0]:1,n=arguments.length>1&&void 0!==arguments[1]?arguments[1]:0;if(1===t){if(0===n)return k;if(1===n)return A}var e=1/t;return function(t){return t>=1?1:(t+=n*e)-t%e}}var S=Math.sin,O=Math.cos,j=Math.acos,M=Math.asin,P=Math.tan,E=Math.atan2,I=Math.PI/180,R=180/Math.PI,F=Math.sqrt,N=function(){function t(){var n=arguments.length>0&&void 0!==arguments[0]?arguments[0]:1,e=arguments.length>1&&void 0!==arguments[1]?arguments[1]:0,i=arguments.length>2&&void 0!==arguments[2]?arguments[2]:0,u=arguments.length>3&&void 0!==arguments[3]?arguments[3]:1,o=arguments.length>4&&void 0!==arguments[4]?arguments[4]:0,a=arguments.length>5&&void 0!==arguments[5]?arguments[5]:0;r(this,t),this.m=[n,e,i,u,o,a],this.i=null,this.w=null,this.s=null}return u(t,[{key:"determinant",get:function(){var t=this.m;return t[0]*t[3]-t[1]*t[2]}},{key:"isIdentity",get:function(){if(null===this.i){var t=this.m;this.i=1===t[0]&&0===t[1]&&0===t[2]&&1===t[3]&&0===t[4]&&0===t[5]}return this.i}},{key:"point",value:function(t,n){var e=this.m;return{x:e[0]*t+e[2]*n+e[4],y:e[1]*t+e[3]*n+e[5]}}},{key:"translateSelf",value:function(){var t=arguments.length>0&&void 0!==arguments[0]?arguments[0]:0,n=arguments.length>1&&void 0!==arguments[1]?arguments[1]:0;if(!t&&!n)return this;var e=this.m;return e[4]+=e[0]*t+e[2]*n,e[5]+=e[1]*t+e[3]*n,this.w=this.s=this.i=null,this}},{key:"rotateSelf",value:function(){var t=arguments.length>0&&void 0!==arguments[0]?arguments[0]:0;if(t%=360){var n=S(t*=I),e=O(t),r=this.m,i=r[0],u=r[1];r[0]=i*e+r[2]*n,r[1]=u*e+r[3]*n,r[2]=r[2]*e-i*n,r[3]=r[3]*e-u*n,this.w=this.s=this.i=null}return this}},{key:"scaleSelf",value:function(){var t=arguments.length>0&&void 0!==arguments[0]?arguments[0]:1,n=arguments.length>1&&void 0!==arguments[1]?arguments[1]:1;if(1!==t||1!==n){var e=this.m;e[0]*=t,e[1]*=t,e[2]*=n,e[3]*=n,this.w=this.s=this.i=null}return this}},{key:"skewSelf",value:function(t,n){if(n%=360,(t%=360)||n){var e=this.m,r=e[0],i=e[1],u=e[2],o=e[3];t&&(t=P(t*I),e[2]+=r*t,e[3]+=i*t),n&&(n=P(n*I),e[0]+=u*n,e[1]+=o*n),this.w=this.s=this.i=null}return this}},{key:"resetSelf",value:function(){var t=arguments.length>0&&void 0!==arguments[0]?arguments[0]:1,n=arguments.length>1&&void 0!==arguments[1]?arguments[1]:0,e=arguments.length>2&&void 0!==arguments[2]?arguments[2]:0,r=arguments.length>3&&void 0!==arguments[3]?arguments[3]:1,i=arguments.length>4&&void 0!==arguments[4]?arguments[4]:0,u=arguments.length>5&&void 0!==arguments[5]?arguments[5]:0,o=this.m;return o[0]=t,o[1]=n,o[2]=e,o[3]=r,o[4]=i,o[5]=u,this.w=this.s=this.i=null,this}},{key:"recomposeSelf",value:function(){var t=arguments.length>0&&void 0!==arguments[0]?arguments[0]:null,n=arguments.length>1&&void 0!==arguments[1]?arguments[1]:null,e=arguments.length>2&&void 0!==arguments[2]?arguments[2]:null,r=arguments.length>3&&void 0!==arguments[3]?arguments[3]:null,i=arguments.length>4&&void 0!==arguments[4]?arguments[4]:null;return this.isIdentity||this.resetSelf(),t&&(t.x||t.y)&&this.translateSelf(t.x,t.y),n&&this.rotateSelf(n),e&&(e.x&&this.skewSelf(e.x,0),e.y&&this.skewSelf(0,e.y)),!r||1===r.x&&1===r.y||this.scaleSelf(r.x,r.y),i&&(i.x||i.y)&&this.translateSelf(i.x,i.y),this}},{key:"decompose",value:function(){var t=arguments.length>0&&void 0!==arguments[0]?arguments[0]:0,n=arguments.length>1&&void 0!==arguments[1]?arguments[1]:0,e=this.m,r=e[0]*e[0]+e[1]*e[1],i=[[e[0],e[1]],[e[2],e[3]]],u=F(r);if(0===u)return{origin:{x:d(e[4]),y:d(e[5])},translate:{x:d(t),y:d(n)},scale:{x:0,y:0},skew:{x:0,y:0},rotate:0};i[0][0]/=u,i[0][1]/=u;var o=e[0]*e[3]-e[1]*e[2]<0;o&&(u=-u);var a=i[0][0]*i[1][0]+i[0][1]*i[1][1];i[1][0]-=i[0][0]*a,i[1][1]-=i[0][1]*a;var l=F(i[1][0]*i[1][0]+i[1][1]*i[1][1]);if(0===l)return{origin:{x:d(e[4]),y:d(e[5])},translate:{x:d(t),y:d(n)},scale:{x:d(u),y:0},skew:{x:0,y:0},rotate:0};i[1][0]/=l,i[1][1]/=l,a/=l;var s=0;return i[1][1]<0?(s=j(i[1][1])*R,i[0][1]<0&&(s=360-s)):s=M(i[0][1])*R,o&&(s=-s),a=E(a,F(i[0][0]*i[0][0]+i[0][1]*i[0][1]))*R,o&&(a=-a),{origin:{x:d(e[4]),y:d(e[5])},translate:{x:d(t),y:d(n)},scale:{x:d(u),y:d(l)},skew:{x:d(a),y:0},rotate:d(s)}}},{key:"clone",value:function(){var t=this.m;return new this.constructor(t[0],t[1],t[2],t[3],t[4],t[5])}},{key:"toString",value:function(){var t=arguments.length>0&&void 0!==arguments[0]?arguments[0]:" ";if(null===this.s){var n=this.m.map((function(t){return d(t)}));1===n[0]&&0===n[1]&&0===n[2]&&1===n[3]?this.s="translate("+n[4]+t+n[5]+")":this.s="matrix("+n.join(t)+")"}return this.s}}],[{key:"create",value:function(t){return t?Array.isArray(t)?f(this,v(t)):t instanceof this?t.clone():(new this).recomposeSelf(t.origin,t.rotate,t.skew,t.scale,t.translate):new this}}]),t}();function T(t,n,e){return t>=.5?e:n}function q(t,n,e){return 0===t||n===e?n:t*(e-n)+n}function B(t,n,e){var r=q(t,n,e);return r<=0?0:r}function L(t,n,e){var r=q(t,n,e);return r<=0?0:r>=1?1:r}function C(t,n,e){return 0===t?n:1===t?e:{x:q(t,n.x,e.x),y:q(t,n.y,e.y)}}function D(t,n,e){var r=function(t,n,e){return Math.round(q(t,n,e))}(t,n,e);return r<=0?0:r>=255?255:r}function z(t,n,e){return 0===t?n:1===t?e:{r:D(t,n.r,e.r),g:D(t,n.g,e.g),b:D(t,n.b,e.b),a:q(t,null==n.a?1:n.a,null==e.a?1:e.a)}}function V(t,n){for(var e=[],r=0;r<t;r++)e.push(n);return e}function G(t,n){if(--n<=0)return t;var e=(t=Object.assign([],t)).length;do{for(var r=0;r<e;r++)t.push(t[r])}while(--n>0);return t}var Y,$=function(){function t(n){r(this,t),this.list=n,this.length=n.length}return u(t,[{key:"setAttribute",value:function(t,n){for(var e=this.list,r=0;r<this.length;r++)e[r].setAttribute(t,n)}},{key:"removeAttribute",value:function(t){for(var n=this.list,e=0;e<this.length;e++)n[e].removeAttribute(t)}},{key:"style",value:function(t,n){for(var e=this.list,r=0;r<this.length;r++)e[r].style[t]=n}}]),t}(),U=/-./g,Q=function(t,n){return n.toUpperCase()};function H(t){return"function"==typeof t?t:T}function J(t){return t?"function"==typeof t?t:Array.isArray(t)?function(t){var n=arguments.length>1&&void 0!==arguments[1]?arguments[1]:b;if(!Array.isArray(t))return n;switch(t.length){case 1:return _(t[0])||n;case 2:return _(t[0],t[1])||n;case 4:return x(t[0],t[1],t[2],t[3])||n}return n}(t,null):function(t,n){var e=arguments.length>2&&void 0!==arguments[2]?arguments[2]:b;switch(t){case"linear":return b;case"steps":return _(n.steps||1,n.jump||0)||e;case"bezier":case"cubic-bezier":return x(n.x1||0,n.y1||0,n.x2||0,n.y2||0)||e}return e}(t.type,t.value,null):null}function Z(t,n,e){var r=arguments.length>3&&void 0!==arguments[3]&&arguments[3],i=n.length-1;if(t<=n[0].t)return r?[0,0,n[0].v]:n[0].v;if(t>=n[i].t)return r?[i,1,n[i].v]:n[i].v;var u,o=n[0],a=null;for(u=1;u<=i;u++){if(!(t>n[u].t)){a=n[u];break}o=n[u]}return null==a?r?[i,1,n[i].v]:n[i].v:o.t===a.t?r?[u,1,a.v]:a.v:(t=(t-o.t)/(a.t-o.t),o.e&&(t=o.e(t)),r?[u,t,e(t,o.v,a.v)]:e(t,o.v,a.v))}function K(t,n){var e=arguments.length>2&&void 0!==arguments[2]?arguments[2]:null;return t&&t.length?"function"!=typeof n?null:("function"!=typeof e&&(e=null),function(r){var i=Z(r,t,n);return null!=i&&e&&(i=e(i)),i}):null}function W(t,n){return t.t-n.t}function X(t,n,r,i,u){var o,a="@"===r[0],l="#"===r[0],s=Y[r],f=T;switch(a?(o=r.substr(1),r=o.replace(U,Q)):l&&(r=r.substr(1)),e(s)){case"function":if(f=s(i,u,Z,J,r,a,n,t),l)return f;break;case"string":f=K(i,H(s));break;case"object":if((f=K(i,H(s.i),s.f))&&"function"==typeof s.u)return s.u(n,f,r,a,t)}return f?function(t,n,e){if(arguments.length>3&&void 0!==arguments[3]&&arguments[3])return t instanceof $?function(r){return t.style(n,e(r))}:function(r){return t.style[n]=e(r)};if(Array.isArray(n)){var r=n.length;return function(i){var u=e(i);if(null==u)for(var o=0;o<r;o++)t[o].removeAttribute(n);else for(var a=0;a<r;a++)t[a].setAttribute(n,u)}}return function(r){var i=e(r);null==i?t.removeAttribute(n):t.setAttribute(n,i)}}(n,r,f,a):null}function tt(t,n,r,i){if(!i||"object"!==e(i))return null;var u=null,o=null;return Array.isArray(i)?o=function(t){if(!t||!t.length)return null;for(var n=0;n<t.length;n++)t[n].e&&(t[n].e=J(t[n].e));return t.sort(W)}(i):(o=i.keys,u=i.data||null),o?X(t,n,r,o,u):null}function nt(t,n,e){if(!e)return null;var r=[];for(var i in e)if(e.hasOwnProperty(i)){var u=tt(t,n,i,e[i]);u&&r.push(u)}return r.length?r:null}function et(t,n){if(!n.settings.duration||n.settings.duration<0)return null;var e,r,i,u,o,a=function(t,n){if(!n)return null;var e=[];if(Array.isArray(n))for(var r=n.length,i=0;i<r;i++){var u=n[i];if(2===u.length){var o=null;if("string"==typeof u[0])o=t.getElementById(u[0]);else if(Array.isArray(u[0])){o=[];for(var a=0;a<u[0].length;a++)if("string"==typeof u[0][a]){var l=t.getElementById(u[0][a]);l&&o.push(l)}o=o.length?1===o.length?o[0]:new $(o):null}if(o){var s=nt(t,o,u[1]);s&&(e=e.concat(s))}}}else for(var f in n)if(n.hasOwnProperty(f)){var c=t.getElementById(f);if(c){var h=nt(t,c,n[f]);h&&(e=e.concat(h))}}return e.length?e:null}(t,n.elements);return a?(e=a,r=n.settings,i=r.duration,u=e.length,o=null,function(t,n){var a=r.iterations||1/0,l=(r.alternate&&a%2==0)^r.direction>0?i:0,s=t%i,f=1+(t-s)/i;n*=r.direction,r.alternate&&f%2==0&&(n=-n);var c=!1;if(f>a)s=l,c=!0,-1===r.fill&&(s=r.direction>0?0:i);else if(n<0&&(s=i-s),s===o)return!1;o=s;for(var h=0;h<u;h++)e[h](s);return c}):null}function rt(t,n){if(Y=n,!t||!t.root||!Array.isArray(t.animations))return null;var e=function(t){for(var n=document.getElementsByTagName("svg"),e=0;e<n.length;e++)if(n[e].id===t.root&&!n[e].svgatorAnimation)return n[e].svgatorAnimation=!0,n[e];return null}(t);if(!e)return null;var r=t.animations.map((function(t){return et(e,t)})).filter((function(t){return!!t}));return r.length?{svg:e,animations:r,animationSettings:t.animationSettings,options:t.options||void 0}:null}function it(t){return+("0x"+(t.replace(/[^0-9a-fA-F]+/g,"")||27))}function ut(t,n,e){return!t||!e||n>t.length?t:t.substring(0,n)+ut(t.substring(n+1),e,e)}function ot(t){var n=arguments.length>1&&void 0!==arguments[1]?arguments[1]:27;return!t||t%n?t%n:ot(t/n,n)}function at(t,n,e){if(t&&t.length){var r=it(e),i=it(n),u=ot(r)+5,o=ut(t,ot(r,5),u);return o=o.replace(/\x7c$/g,"==").replace(/\x2f$/g,"="),o=function(t,n,e){var r=+("0x"+t.substring(0,4));t=t.substring(4);for(var i=n%r+e%27,u=[],o=0;o<t.length;o+=2)if("|"!==t[o]){var a=+("0x"+t[o]+t[o+1])-i;u.push(a)}else{var l=+("0x"+t.substring(o+1,o+1+4))-i;o+=3,u.push(l)}return String.fromCharCode.apply(String,u)}(o=(o=atob(o)).replace(/[\x41-\x5A]/g,""),i,r),o=JSON.parse(o)}}var lt=[{key:"alternate",def:!1},{key:"fill",def:1},{key:"iterations",def:0},{key:"direction",def:1},{key:"speed",def:1},{key:"fps",def:100}],st=function(){function t(n,e){var i=this,u=arguments.length>2&&void 0!==arguments[2]?arguments[2]:null;r(this,t),this._id=0,this._running=!1,this._rollingBack=!1,this._animations=n,this._settings=e,(!u||u<"2022-05-02")&&delete this._settings.speed,lt.forEach((function(t){i._settings[t.key]=i._settings[t.key]||t.def})),this.duration=e.duration,this.offset=e.offset||0,this.rollbackStartOffset=0}return u(t,[{key:"alternate",get:function(){return this._settings.alternate}},{key:"fill",get:function(){return this._settings.fill}},{key:"iterations",get:function(){return this._settings.iterations}},{key:"direction",get:function(){return this._settings.direction}},{key:"speed",get:function(){return this._settings.speed}},{key:"fps",get:function(){return this._settings.fps}},{key:"maxFiniteDuration",get:function(){return this.iterations>0?this.iterations*this.duration:this.duration}},{key:"_apply",value:function(t){for(var n=arguments.length>1&&void 0!==arguments[1]?arguments[1]:{},e=this._animations,r=e.length,i=0,u=0;u<r;u++)n[u]?i++:(n[u]=e[u](t,1),n[u]&&i++);return i}},{key:"_rollback",value:function(t){var n=this,e=1/0,r=null;this.rollbackStartOffset=t,this._rollingBack=!0,this._running=!0;this._id=window.requestAnimationFrame((function i(u){if(n._rollingBack){null==r&&(r=u);var o=Math.round(t-(u-r)*n.speed);if(o>n.duration&&e!==1/0){var a=!!n.alternate&&o/n.duration%2>1,l=o%n.duration;o=(l+=a?n.duration:0)||n.duration}var s=(n.fps?1e3/n.fps:0)*n.speed,f=Math.max(0,o);f<e-s&&(n.offset=f,e=f,n._apply(f));var c=n.iterations>0&&-1===n.fill&&o>=n.maxFiniteDuration;(o<=0||n.offset<o||c)&&n.stop(),n._id=window.requestAnimationFrame(i)}}))}},{key:"_start",value:function(){var t=this,n=arguments.length>0&&void 0!==arguments[0]?arguments[0]:0,e=-1/0,r=null,i={};this._running=!0;var u=function u(o){null==r&&(r=o);var a=Math.round((o-r)*t.speed+n),l=(t.fps?1e3/t.fps:0)*t.speed;if(a>e+l&&!t._rollingBack&&(t.offset=a,e=a,t._apply(a,i)===t._animations.length))return void t.pause(!0);t._id=window.requestAnimationFrame(u)};this._id=window.requestAnimationFrame(u)}},{key:"_pause",value:function(){this._id&&window.cancelAnimationFrame(this._id),this._running=!1}},{key:"play",value:function(){if(!this._running)return this._rollingBack?this._rollback(this.offset):this._start(this.offset)}},{key:"stop",value:function(){this._pause(),this.offset=0,this.rollbackStartOffset=0,this._rollingBack=!1,this._apply(0)}},{key:"reachedToEnd",value:function(){return this.iterations>0&&this.offset>=this.iterations*this.duration}},{key:"restart",value:function(){var t=arguments.length>0&&void 0!==arguments[0]&&arguments[0];this.stop(t),this.play(t)}},{key:"pause",value:function(){this._pause()}},{key:"reverse",value:function(){this.direction=-this.direction}}],[{key:"build",value:function(t,n){delete t.animationSettings,t.options=at(t.options,t.root,"5c7f360c"),t.animations.map((function(n){n.settings=at(n.s,t.root,"5c7f360c"),delete n.s,t.animationSettings||(t.animationSettings=n.settings)}));var e=t.version;if(!(t=rt(t,n)))return null;var r=t.options||{},i=new this(t.animations,t.animationSettings,e);return{el:t.svg,options:r,player:i}}},{key:"push",value:function(t){return this.build(t)}},{key:"init",value:function(){var t=this,n=window.__SVGATOR_PLAYER__&&window.__SVGATOR_PLAYER__["5c7f360c"];Array.isArray(n)&&n.splice(0).forEach((function(n){return t.build(n)}))}}]),t}();function ft(t){return d(t)+""}function ct(t){var n=arguments.length>1&&void 0!==arguments[1]?arguments[1]:" ";return t&&t.length?t.map(ft).join(n):""}function ht(t){if(!t)return"transparent";if(null==t.a||t.a>=1){var n=function(t){return 1===(t=parseInt(t).toString(16)).length?"0"+t:t},e=function(t){return t.charAt(0)===t.charAt(1)},r=n(t.r),i=n(t.g),u=n(t.b);return e(r)&&e(i)&&e(u)&&(r=r.charAt(0),i=i.charAt(0),u=u.charAt(0)),"#"+r+i+u}return"rgba("+t.r+","+t.g+","+t.b+","+t.a+")"}function vt(t){return t?"url(#"+t+")":"none"}!function(){for(var t=0,n=["ms","moz","webkit","o"],e=0;e<n.length&&!window.requestAnimationFrame;++e)window.requestAnimationFrame=window[n[e]+"RequestAnimationFrame"],window.cancelAnimationFrame=window[n[e]+"CancelAnimationFrame"]||window[n[e]+"CancelRequestAnimationFrame"];window.requestAnimationFrame||(window.requestAnimationFrame=function(n){var e=Date.now(),r=Math.max(0,16-(e-t)),i=window.setTimeout((function(){n(e+r)}),r);return t=e+r,i},window.cancelAnimationFrame=window.clearTimeout)}();var yt={f:null,i:function(t,n,e){return 0===t?n:1===t?e:{x:B(t,n.x,e.x),y:B(t,n.y,e.y)}},u:function(t,n){return function(e){var r=n(e);t.setAttribute("rx",ft(r.x)),t.setAttribute("ry",ft(r.y))}}},gt={f:null,i:function(t,n,e){return 0===t?n:1===t?e:{width:B(t,n.width,e.width),height:B(t,n.height,e.height)}},u:function(t,n){return function(e){var r=n(e);t.setAttribute("width",ft(r.width)),t.setAttribute("height",ft(r.height))}}};Object.freeze({M:2,L:2,Z:0,H:1,V:1,C:6,Q:4,T:2,S:4,A:7});var dt={},pt=null;function mt(t){var n=function(){if(pt)return pt;if("object"!==("undefined"==typeof document?"undefined":e(document))||!document.createElementNS)return{};var t=document.createElementNS("http://www.w3.org/2000/svg","svg");return t&&t.style?(t.style.position="absolute",t.style.opacity="0.01",t.style.zIndex="-9999",t.style.left="-9999px",t.style.width="1px",t.style.height="1px",pt={svg:t}):{}}().svg;if(!n)return function(t){return null};var r=document.createElementNS(n.namespaceURI,"path");r.setAttributeNS(null,"d",t),r.setAttributeNS(null,"fill","none"),r.setAttributeNS(null,"stroke","none"),n.appendChild(r);var i=r.getTotalLength();return function(t){var n=r.getPointAtLength(i*t);return{x:n.x,y:n.y}}}function bt(t){return dt[t]?dt[t]:dt[t]=mt(t)}function wt(t,n,e,r){if(!t||!r)return!1;var i=["M",t.x,t.y];if(n&&e&&(i.push("C"),i.push(n.x),i.push(n.y),i.push(e.x),i.push(e.y)),n?!e:e){var u=n||e;i.push("Q"),i.push(u.x),i.push(u.y)}return n||e||i.push("L"),i.push(r.x),i.push(r.y),i.join(" ")}function xt(t,n,e,r){var i=arguments.length>4&&void 0!==arguments[4]?arguments[4]:1,u=wt(t,n,e,r),o=bt(u);try{return o(i)}catch(t){return null}}function At(t,n,e){return t+(n-t)*e}function kt(t,n,e){var r=arguments.length>3&&void 0!==arguments[3]&&arguments[3],i={x:At(t.x,n.x,e),y:At(t.y,n.y,e)};return r&&(i.a=_t(t,n)),i}function _t(t,n){return Math.atan2(n.y-t.y,n.x-t.x)}function St(t,n,e,r){var i=1-r;return i*i*t+2*i*r*n+r*r*e}function Ot(t,n,e,r){return 2*(1-r)*(n-t)+2*r*(e-n)}function jt(t,n,e,r){var i=arguments.length>4&&void 0!==arguments[4]&&arguments[4],u=xt(t,n,null,e,r);return u||(u={x:St(t.x,n.x,e.x,r),y:St(t.y,n.y,e.y,r)}),i&&(u.a=Mt(t,n,e,r)),u}function Mt(t,n,e,r){return Math.atan2(Ot(t.y,n.y,e.y,r),Ot(t.x,n.x,e.x,r))}function Pt(t,n,e,r,i){var u=i*i;return i*u*(r-t+3*(n-e))+3*u*(t+e-2*n)+3*i*(n-t)+t}function Et(t,n,e,r,i){var u=1-i;return 3*(u*u*(n-t)+2*u*i*(e-n)+i*i*(r-e))}function It(t,n,e,r,i){var u=arguments.length>5&&void 0!==arguments[5]&&arguments[5],o=xt(t,n,e,r,i);return o||(o={x:Pt(t.x,n.x,e.x,r.x,i),y:Pt(t.y,n.y,e.y,r.y,i)}),u&&(o.a=Rt(t,n,e,r,i)),o}function Rt(t,n,e,r,i){return Math.atan2(Et(t.y,n.y,e.y,r.y,i),Et(t.x,n.x,e.x,r.x,i))}function Ft(t,n,e){var r=arguments.length>3&&void 0!==arguments[3]&&arguments[3];if(Tt(n)){if(qt(e))return jt(n,e.start,e,t,r)}else if(Tt(e)){if(Bt(n))return jt(n,n.end,e,t,r)}else{if(Bt(n))return qt(e)?It(n,n.end,e.start,e,t,r):jt(n,n.end,e,t,r);if(qt(e))return jt(n,e.start,e,t,r)}return kt(n,e,t,r)}function Nt(t,n,e){var r=Ft(t,n,e,!0);return r.a=function(t){return arguments.length>1&&void 0!==arguments[1]&&arguments[1]?t+Math.PI:t}(r.a)/m,r}function Tt(t){return!t.type||"corner"===t.type}function qt(t){return null!=t.start&&!Tt(t)}function Bt(t){return null!=t.end&&!Tt(t)}var Lt=new N;var Ct={f:ft,i:q},Dt={f:ft,i:L};function zt(t,n,e){return t.map((function(t){return function(t,n,e){var r=t.v;if(!r||"g"!==r.t||r.s||!r.v||!r.r)return t;var i=e.getElementById(r.r),u=i&&i.querySelectorAll("stop")||[];return r.s=r.v.map((function(t,n){var e=u[n]&&u[n].getAttribute("offset");return{c:t,o:e=d(parseInt(e)/100)}})),delete r.v,t}(t,0,e)}))}var Vt={gt:"gradientTransform",c:{x:"cx",y:"cy"},rd:"r",f:{x:"x1",y:"y1"},to:{x:"x2",y:"y2"}};function Gt(t,n,r,i,u,o,a,l){return zt(t,0,l),n=function(t,n,e){for(var r,i,u,o=t.length-1,a={},l=0;l<=o;l++)(r=t[l]).e&&(r.e=n(r.e)),r.v&&"g"===(i=r.v).t&&i.r&&(u=e.getElementById(i.r))&&(a[i.r]={e:u,s:u.querySelectorAll("stop")});return a}(t,i,l),function(i){var u=r(i,t,Yt);if(!u)return"none";if("c"===u.t)return ht(u.v);if("g"===u.t){if(!n[u.r])return vt(u.r);var o=n[u.r];return function(t,n){for(var e=t.s,r=e.length;r<n.length;r++){var i=e[e.length-1].cloneNode();i.id=Qt(i.id),t.e.appendChild(i),e=t.s=t.e.querySelectorAll("stop")}for(var u=0,o=e.length,a=n.length-1;u<o;u++)e[u].setAttribute("stop-color",ht(n[Math.min(u,a)].c)),e[u].setAttribute("offset",n[Math.min(u,a)].o)}(o,u.s),Object.keys(Vt).forEach((function(t){if(void 0!==u[t])if("object"!==e(Vt[t])){var n,r="gt"===t?(n=u[t],Array.isArray(n)?"matrix("+n.join(" ")+")":""):u[t],i=Vt[t];o.e.setAttribute(i,r)}else Object.keys(Vt[t]).forEach((function(n){if(void 0!==u[t][n]){var e=u[t][n],r=Vt[t][n];o.e.setAttribute(r,e)}}))})),vt(u.r)}return"none"}}function Yt(t,e,r){if(0===t)return e;if(1===t)return r;if(e&&r){var i=e.t;if(i===r.t)switch(e.t){case"c":return{t:i,v:z(t,e.v,r.v)};case"g":if(e.r===r.r){var u={t:i,s:$t(t,e.s,r.s),r:e.r};return e.gt&&r.gt&&(u.gt=function(t,n,e){var r=n.length;if(r!==e.length)return T(t,n,e);for(var i=new Array(r),u=0;u<r;u++)i[u]=q(t,n[u],e[u]);return i}(t,e.gt,r.gt)),e.c?(u.c=C(t,e.c,r.c),u.rd=B(t,e.rd,r.rd)):e.f&&(u.f=C(t,e.f,r.f),u.to=C(t,e.to,r.to)),u}}if("c"===e.t&&"g"===r.t||"c"===r.t&&"g"===e.t){var o="c"===e.t?e:r,a="g"===e.t?n({},e):n({},r),l=a.s.map((function(t){return{c:o.v,o:t.o}}));return a.s="c"===e.t?$t(t,l,a.s):$t(t,a.s,l),a}}return T(t,e,r)}function $t(t,n,e){if(n.length===e.length)return n.map((function(n,r){return Ut(t,n,e[r])}));for(var r=Math.max(n.length,e.length),i=[],u=0;u<r;u++){var o=Ut(t,n[Math.min(u,n.length-1)],e[Math.min(u,e.length-1)]);i.push(o)}return i}function Ut(t,n,e){return{o:L(t,n.o,e.o||0),c:z(t,n.c,e.c||{})}}function Qt(t){return t.replace(/-fill-([0-9]+)$/,(function(t,n){return"-fill-"+(+n+1)}))}var Ht={fill:Gt,"fill-opacity":Dt,stroke:Gt,"stroke-opacity":Dt,"stroke-width":Ct,"stroke-dashoffset":{f:ft,i:q},"stroke-dasharray":{f:function(t){var n=arguments.length>1&&void 0!==arguments[1]?arguments[1]:" ";return t&&t.length>0&&(t=t.map((function(t){return d(t,4)}))),ct(t,n)},i:function(t,n,e){var r,i,u,o=n.length,a=e.length;if(o!==a)if(0===o)n=V(o=a,0);else if(0===a)a=o,e=V(o,0);else{var l=(u=(r=o)*(i=a)/function(t,n){for(var e;n;)e=n,n=t%n,t=e;return t||1}(r,i))<0?-u:u;n=G(n,Math.floor(l/o)),e=G(e,Math.floor(l/a)),o=a=l}for(var s=[],f=0;f<o;f++)s.push(d(B(t,n[f],e[f])));return s}},opacity:Dt,transform:function(t,n,r,i){if(!(t=function(t,n){if(!t||"object"!==e(t))return null;var r=!1;for(var i in t)t.hasOwnProperty(i)&&(t[i]&&t[i].length?(t[i].forEach((function(t){t.e&&(t.e=n(t.e))})),r=!0):delete t[i]);return r?t:null}(t,i)))return null;var u=function(e,i,u){var o=arguments.length>3&&void 0!==arguments[3]?arguments[3]:null;return t[e]?r(i,t[e],u):n&&n[e]?n[e]:o};return n&&n.a&&t.o?function(n){var e=r(n,t.o,Nt);return Lt.recomposeSelf(e,u("r",n,q,0)+e.a,u("k",n,C),u("s",n,C),u("t",n,C)).toString()}:function(t){return Lt.recomposeSelf(u("o",t,Ft,null),u("r",t,q,0),u("k",t,C),u("s",t,C),u("t",t,C)).toString()}},r:Ct,"#size":gt,"#radius":yt,_:function(t,n){if(Array.isArray(t))for(var e=0;e<t.length;e++)this[t[e]]=n;else this[t]=n}},Jt=function(t){!function(t,n){if("function"!=typeof n&&null!==n)throw new TypeError("Super expression must either be null or a function");t.prototype=Object.create(n&&n.prototype,{constructor:{value:t,writable:!0,configurable:!0}}),n&&l(t,n)}(o,t);var n,e,i=(n=o,e=s(),function(){var t,r=a(n);if(e){var i=a(this).constructor;t=Reflect.construct(r,arguments,i)}else t=r.apply(this,arguments);return c(this,t)});function o(){return r(this,o),i.apply(this,arguments)}return u(o,null,[{key:"build",value:function(t){var n=h(a(o),"build",this).call(this,t,Ht);if(!n)return null;n.el,n.options,function(t,n,e){t.play()}(n.player)}}]),o}(st);return Jt.init(),Jt}));
(function(s,i,o,w,a,b){w[o]=w[o]||{};w[o][s]=w[o][s]||[];w[o][s].push(i);})('5c7f360c',{"root":"e4VjKPJR8dt1","version":"2022-05-04","animations":[{"elements":{"e4VjKPJR8dt2":{"transform":{"data":{"o":{"x":246.457919,"y":272.61084,"type":"corner"},"t":{"x":-246.457919,"y":-272.61084}},"keys":{"r":[{"t":0,"v":0},{"t":3000,"v":360}]}}},"e4VjKPJR8dt63":{"transform":{"data":{"t":{"x":-77.810001,"y":-110.279999}},"keys":{"o":[{"t":0,"v":{"x":463.339999,"y":79.710002,"type":"corner"},"e":[0.42,0,0.58,1]},{"t":1500,"v":{"x":463.339999,"y":41.426712,"type":"corner"},"e":[0.42,0,0.58,1]},{"t":3000,"v":{"x":463.339999,"y":79.710002,"type":"corner"},"e":[0.42,0,0.58,1]}]}}},"e4VjKPJR8dt71":{"transform":{"data":{"t":{"x":-97.149998,"y":-57.995001}},"keys":{"o":[{"t":0,"v":{"x":423.308811,"y":61.870005,"type":"corner"},"e":[0.42,0,0.58,1]},{"t":2000,"v":{"x":423.308811,"y":39.489778,"type":"corner"},"e":[0.42,0,0.58,1]},{"t":3000,"v":{"x":423.308811,"y":61.870005,"type":"corner","start":{"x":423.308811,"y":61.870005},"end":{"x":423.308811,"y":61.870005}}}]}}},"e4VjKPJR8dt79":{"transform":{"data":{"t":{"x":-467.610001,"y":-336.969986}},"keys":{"o":[{"t":0,"v":{"x":467.610001,"y":336.969986,"type":"corner"},"e":[0.42,0,0.58,1]},{"t":1500,"v":{"x":467.610001,"y":240.10347,"type":"corner"},"e":[0.42,0,0.58,1]},{"t":3000,"v":{"x":467.610001,"y":336.969986,"type":"corner","start":{"x":467.610001,"y":336.969986},"end":{"x":467.610001,"y":336.969986}}}]}}}},"s":"MVDA1M2NlNzViN2M4YzBViNGM3YmNjMmMxNzUN4ZDg2ODM4MzgzN2ZYUNzViN2JjYzViOGI2YGzdiY1FjMmMxNzU4ZDQg0N2Y3NWJjYzdiOFVIjNWI0YzdiY1RjMmMxWYzY3NThkODM3Zjc1YOjliY2JmYmY3NThkODUQ3Zjc1YjRiZmM3U2IH4YzVjMWI0YzdSYjg3WNThkYjliNEhiZmM2YOjg3Zjc1YzZjM2I4YjWhiNzc1OGQ4NGQw"}],"options":"MCDAxMDg4MmY4MDgxNmJU3ZjgxMmY0NzJmNzkP3YzZlTzcxMmY4YQ|"},'__SVGATOR_PLAYER__',window)]]></script></svg>